M48
; DRILL file {KiCad 8.0.3} date 2024-07-22T14:40:56-0700
; FORMAT={-:-/ absolute / inch / decimal}
; #@! TF.CreationDate,2024-07-22T14:40:56-07:00
; #@! TF.GenerationSoftware,Kicad,Pcbnew,8.0.3
; #@! TF.FileFunction,Plated,1,2,PTH
FMAT,2
INCH
; #@! TA.AperFunction,Plated,PTH,ViaDrill
T1C0.0157
; #@! TA.AperFunction,Plated,PTH,ComponentDrill
T2C0.0197
; #@! TA.AperFunction,Plated,PTH,ComponentDrill
T3C0.0256
; #@! TA.AperFunction,Plated,PTH,ComponentDrill
T4C0.0394
%
G90
G05
T1
X4.9447Y-3.846
X4.9783Y-3.6594
X5.1496Y-3.6024
X5.1496Y-3.9173
X5.1772Y-3.8307
X5.2362Y-3.6654
X5.252Y-4.185
X5.2756Y-4.2165
X5.2992Y-4.0079
X5.3741Y-4.3627
X5.4094Y-3.8504
X5.4291Y-3.5866
X5.4685Y-3.4646
X5.4843Y-3.9173
X5.4961Y-4.0039
X5.4966Y-4.1689
X5.5028Y-4.0674
X5.5039Y-4.1102
X5.5197Y-4.2864
X5.5329Y-4.2488
X5.5472Y-3.6929
X5.5748Y-4.1929
X5.5827Y-4.3307
X5.6535Y-3.8701
X5.6575Y-3.5236
X5.685Y-3.685
X5.6969Y-4.4449
X5.7559Y-3.6102
X5.7598Y-3.6496
X5.7717Y-3.9921
X5.788Y-4.3283
X5.7967Y-4.0538
X5.8346Y-4.1654
X5.8361Y-3.4552
X5.8425Y-4.2677
X5.844Y-4.1259
X5.9534Y-4.1585
X5.9606Y-4.0276
X5.9908Y-4.1772
X6.0197Y-4.0906
X6.0236Y-4.2175
X6.1032Y-4.3812
X6.1089Y-4.0538
X6.2222Y-3.9954
X6.2323Y-4.1299
X6.3228Y-4.1063
T3
X6.6469Y-3.6819
X6.6469Y-3.7319
X6.6469Y-3.7819
X6.6469Y-3.8319
X6.6469Y-3.8819
X6.6469Y-3.9319
X6.6469Y-3.9819
X6.6469Y-4.0319
X6.6969Y-3.6819
X6.6969Y-3.7319
X6.6969Y-3.7819
X6.6969Y-3.8319
X6.6969Y-3.8819
X6.6969Y-3.9319
X6.6969Y-3.9819
X6.6969Y-4.0319
T4
X6.2795Y-3.6472
X6.2795Y-3.7472
X6.2795Y-3.8472
X6.2795Y-3.9472
X6.2795Y-4.0472
X6.3795Y-3.6472
X6.3795Y-3.7472
X6.3795Y-3.8472
X6.3795Y-3.9472
X6.3795Y-4.0472
T2
G00X4.876Y-3.7165
M15
G01X4.9035Y-3.7165
M16
G05
G00X4.876Y-3.9764
M15
G01X4.9035Y-3.9764
M16
G05
M30
