%TF.GenerationSoftware,KiCad,Pcbnew,8.0.3*%
%TF.CreationDate,2024-07-22T14:40:56-07:00*%
%TF.ProjectId,USB_SPII2CK,5553425f-5350-4494-9932-434b2e6b6963,rev?*%
%TF.SameCoordinates,Original*%
%TF.FileFunction,Copper,L1,Top*%
%TF.FilePolarity,Positive*%
%FSLAX46Y46*%
G04 Gerber Fmt 4.6, Leading zero omitted, Abs format (unit mm)*
G04 Created by KiCad (PCBNEW 8.0.3) date 2024-07-22 14:40:56*
%MOMM*%
%LPD*%
G01*
G04 APERTURE LIST*
G04 Aperture macros list*
%AMRoundRect*
0 Rectangle with rounded corners*
0 $1 Rounding radius*
0 $2 $3 $4 $5 $6 $7 $8 $9 X,Y pos of 4 corners*
0 Add a 4 corners polygon primitive as box body*
4,1,4,$2,$3,$4,$5,$6,$7,$8,$9,$2,$3,0*
0 Add four circle primitives for the rounded corners*
1,1,$1+$1,$2,$3*
1,1,$1+$1,$4,$5*
1,1,$1+$1,$6,$7*
1,1,$1+$1,$8,$9*
0 Add four rect primitives between the rounded corners*
20,1,$1+$1,$2,$3,$4,$5,0*
20,1,$1+$1,$4,$5,$6,$7,0*
20,1,$1+$1,$6,$7,$8,$9,0*
20,1,$1+$1,$8,$9,$2,$3,0*%
%AMFreePoly0*
4,1,19,0.500000,-0.750000,0.000000,-0.750000,0.000000,-0.744911,-0.071157,-0.744911,-0.207708,-0.704816,-0.327430,-0.627875,-0.420627,-0.520320,-0.479746,-0.390866,-0.500000,-0.250000,-0.500000,0.250000,-0.479746,0.390866,-0.420627,0.520320,-0.327430,0.627875,-0.207708,0.704816,-0.071157,0.744911,0.000000,0.744911,0.000000,0.750000,0.500000,0.750000,0.500000,-0.750000,0.500000,-0.750000,
$1*%
%AMFreePoly1*
4,1,19,0.000000,0.744911,0.071157,0.744911,0.207708,0.704816,0.327430,0.627875,0.420627,0.520320,0.479746,0.390866,0.500000,0.250000,0.500000,-0.250000,0.479746,-0.390866,0.420627,-0.520320,0.327430,-0.627875,0.207708,-0.704816,0.071157,-0.744911,0.000000,-0.744911,0.000000,-0.750000,-0.500000,-0.750000,-0.500000,0.750000,0.000000,0.750000,0.000000,0.744911,0.000000,0.744911,
$1*%
G04 Aperture macros list end*
%TA.AperFunction,SMDPad,CuDef*%
%ADD10FreePoly0,90.000000*%
%TD*%
%TA.AperFunction,SMDPad,CuDef*%
%ADD11FreePoly1,90.000000*%
%TD*%
%TA.AperFunction,SMDPad,CuDef*%
%ADD12RoundRect,0.100000X-0.575000X0.100000X-0.575000X-0.100000X0.575000X-0.100000X0.575000X0.100000X0*%
%TD*%
%TA.AperFunction,ComponentPad*%
%ADD13O,1.600000X0.900000*%
%TD*%
%TA.AperFunction,SMDPad,CuDef*%
%ADD14RoundRect,0.250000X-0.450000X0.550000X-0.450000X-0.550000X0.450000X-0.550000X0.450000X0.550000X0*%
%TD*%
%TA.AperFunction,SMDPad,CuDef*%
%ADD15RoundRect,0.250000X-0.700000X0.700000X-0.700000X-0.700000X0.700000X-0.700000X0.700000X0.700000X0*%
%TD*%
%TA.AperFunction,SMDPad,CuDef*%
%ADD16RoundRect,0.155000X-0.212500X-0.155000X0.212500X-0.155000X0.212500X0.155000X-0.212500X0.155000X0*%
%TD*%
%TA.AperFunction,SMDPad,CuDef*%
%ADD17RoundRect,0.155000X0.155000X-0.212500X0.155000X0.212500X-0.155000X0.212500X-0.155000X-0.212500X0*%
%TD*%
%TA.AperFunction,SMDPad,CuDef*%
%ADD18RoundRect,0.150000X-0.512500X-0.150000X0.512500X-0.150000X0.512500X0.150000X-0.512500X0.150000X0*%
%TD*%
%TA.AperFunction,SMDPad,CuDef*%
%ADD19RoundRect,0.150000X0.150000X-0.825000X0.150000X0.825000X-0.150000X0.825000X-0.150000X-0.825000X0*%
%TD*%
%TA.AperFunction,SMDPad,CuDef*%
%ADD20RoundRect,0.160000X0.160000X-0.197500X0.160000X0.197500X-0.160000X0.197500X-0.160000X-0.197500X0*%
%TD*%
%TA.AperFunction,SMDPad,CuDef*%
%ADD21RoundRect,0.160000X0.197500X0.160000X-0.197500X0.160000X-0.197500X-0.160000X0.197500X-0.160000X0*%
%TD*%
%TA.AperFunction,ComponentPad*%
%ADD22RoundRect,0.250000X-0.600000X-0.600000X0.600000X-0.600000X0.600000X0.600000X-0.600000X0.600000X0*%
%TD*%
%TA.AperFunction,ComponentPad*%
%ADD23C,1.700000*%
%TD*%
%TA.AperFunction,SMDPad,CuDef*%
%ADD24RoundRect,0.160000X-0.197500X-0.160000X0.197500X-0.160000X0.197500X0.160000X-0.197500X0.160000X0*%
%TD*%
%TA.AperFunction,SMDPad,CuDef*%
%ADD25RoundRect,0.155000X0.212500X0.155000X-0.212500X0.155000X-0.212500X-0.155000X0.212500X-0.155000X0*%
%TD*%
%TA.AperFunction,ComponentPad*%
%ADD26R,1.000000X1.000000*%
%TD*%
%TA.AperFunction,ComponentPad*%
%ADD27O,1.000000X1.000000*%
%TD*%
%TA.AperFunction,SMDPad,CuDef*%
%ADD28FreePoly0,0.000000*%
%TD*%
%TA.AperFunction,SMDPad,CuDef*%
%ADD29FreePoly1,0.000000*%
%TD*%
%TA.AperFunction,SMDPad,CuDef*%
%ADD30RoundRect,0.075000X-0.700000X-0.075000X0.700000X-0.075000X0.700000X0.075000X-0.700000X0.075000X0*%
%TD*%
%TA.AperFunction,SMDPad,CuDef*%
%ADD31RoundRect,0.075000X-0.075000X-0.700000X0.075000X-0.700000X0.075000X0.700000X-0.075000X0.700000X0*%
%TD*%
%TA.AperFunction,SMDPad,CuDef*%
%ADD32R,1.800000X2.100000*%
%TD*%
%TA.AperFunction,SMDPad,CuDef*%
%ADD33RoundRect,0.155000X-0.155000X0.212500X-0.155000X-0.212500X0.155000X-0.212500X0.155000X0.212500X0*%
%TD*%
%TA.AperFunction,SMDPad,CuDef*%
%ADD34C,1.000000*%
%TD*%
%TA.AperFunction,SMDPad,CuDef*%
%ADD35RoundRect,0.160000X-0.160000X0.197500X-0.160000X-0.197500X0.160000X-0.197500X0.160000X0.197500X0*%
%TD*%
%TA.AperFunction,SMDPad,CuDef*%
%ADD36RoundRect,0.237500X-0.300000X-0.237500X0.300000X-0.237500X0.300000X0.237500X-0.300000X0.237500X0*%
%TD*%
%TA.AperFunction,ViaPad*%
%ADD37C,0.800000*%
%TD*%
%TA.AperFunction,Conductor*%
%ADD38C,0.254000*%
%TD*%
%TA.AperFunction,Conductor*%
%ADD39C,0.400000*%
%TD*%
%TA.AperFunction,Conductor*%
%ADD40C,0.200000*%
%TD*%
%TA.AperFunction,Conductor*%
%ADD41C,0.250000*%
%TD*%
%TA.AperFunction,Conductor*%
%ADD42C,0.600000*%
%TD*%
%TA.AperFunction,Conductor*%
%ADD43C,0.500000*%
%TD*%
G04 APERTURE END LIST*
D10*
%TO.P,J3,1,Pin_1*%
%TO.N,/I2C_SDA*%
X153400000Y-113100000D03*
D11*
%TO.P,J3,2,Pin_2*%
%TO.N,Net-(J3-Pin_2)*%
X153400000Y-111800000D03*
%TD*%
D12*
%TO.P,J4,1,VBUS*%
%TO.N,VBUS*%
X126875000Y-96400000D03*
%TO.P,J4,2,D-*%
%TO.N,/USB-*%
X126875000Y-97050000D03*
%TO.P,J4,3,D+*%
%TO.N,/USB+*%
X126875000Y-97700000D03*
%TO.P,J4,4,ID*%
%TO.N,unconnected-(J4-ID-Pad4)*%
X126875000Y-98350000D03*
%TO.P,J4,5,GND*%
%TO.N,GND*%
X126875000Y-99000000D03*
D13*
%TO.P,J4,6,Shield*%
X124200000Y-94400000D03*
D14*
X126650000Y-94500000D03*
D15*
X124200000Y-96500000D03*
X124200000Y-98900000D03*
D14*
X126650000Y-100900000D03*
D13*
X124200000Y-101000000D03*
%TD*%
D16*
%TO.P,C16,1*%
%TO.N,+3.3V*%
X145032500Y-86900000D03*
%TO.P,C16,2*%
%TO.N,GND*%
X146167500Y-86900000D03*
%TD*%
D17*
%TO.P,C2,1*%
%TO.N,GND*%
X151800000Y-108835000D03*
%TO.P,C2,2*%
%TO.N,Net-(U2-VREGOUT)*%
X151800000Y-107700000D03*
%TD*%
D18*
%TO.P,U1,1,VIN*%
%TO.N,VBUS*%
X129800000Y-90500000D03*
%TO.P,U1,2,GND*%
%TO.N,GND*%
X129800000Y-91450000D03*
%TO.P,U1,3,ON/~{OFF}*%
%TO.N,Net-(U1-ON{slash}~{OFF})*%
X129800000Y-92400000D03*
%TO.P,U1,4,BP*%
%TO.N,Net-(U1-BP)*%
X132075000Y-92400000D03*
%TO.P,U1,5,VOUT*%
%TO.N,Net-(U1-VOUT)*%
X132075000Y-90500000D03*
%TD*%
D19*
%TO.P,U3,1,CS*%
%TO.N,Net-(U2-EECS)*%
X145190000Y-94450000D03*
%TO.P,U3,2,SCLK*%
%TO.N,Net-(U2-EECLK)*%
X146460000Y-94450000D03*
%TO.P,U3,3,DI*%
%TO.N,Net-(U2-EEDATA)*%
X147730000Y-94450000D03*
%TO.P,U3,4,DO*%
%TO.N,Net-(U3-DO)*%
X149000000Y-94450000D03*
%TO.P,U3,5,GND*%
%TO.N,GND*%
X149000000Y-89500000D03*
%TO.P,U3,6,NC*%
%TO.N,unconnected-(U3-NC-Pad6)*%
X147730000Y-89500000D03*
%TO.P,U3,7,NC*%
%TO.N,unconnected-(U3-NC-Pad7)*%
X146460000Y-89500000D03*
%TO.P,U3,8,VCC*%
%TO.N,+3.3V*%
X145190000Y-89500000D03*
%TD*%
D10*
%TO.P,J2,1,Pin_1*%
%TO.N,/I2C_SCL*%
X157300000Y-113000000D03*
D11*
%TO.P,J2,2,Pin_2*%
%TO.N,Net-(J2-Pin_2)*%
X157300000Y-111700000D03*
%TD*%
D20*
%TO.P,R4,1*%
%TO.N,Net-(J3-Pin_2)*%
X153300000Y-109797500D03*
%TO.P,R4,2*%
%TO.N,+3.3V*%
X153300000Y-108602500D03*
%TD*%
D21*
%TO.P,R11,1*%
%TO.N,Net-(U3-DO)*%
X148997500Y-96700000D03*
%TO.P,R11,2*%
%TO.N,Net-(U2-EEDATA)*%
X147802500Y-96700000D03*
%TD*%
D22*
%TO.P,J1,1,Pin_1*%
%TO.N,unconnected-(J1-Pin_1-Pad1)*%
X159500000Y-92640000D03*
D23*
%TO.P,J1,2,Pin_2*%
%TO.N,unconnected-(J1-Pin_2-Pad2)*%
X162040000Y-92640000D03*
%TO.P,J1,3,Pin_3*%
%TO.N,unconnected-(J1-Pin_3-Pad3)*%
X159500000Y-95180000D03*
%TO.P,J1,4,Pin_4*%
%TO.N,unconnected-(J1-Pin_4-Pad4)*%
X162040000Y-95180000D03*
%TO.P,J1,5,Pin_5*%
%TO.N,unconnected-(J1-Pin_5-Pad5)*%
X159500000Y-97720000D03*
%TO.P,J1,6,Pin_6*%
%TO.N,GND*%
X162040000Y-97720000D03*
%TO.P,J1,7,Pin_7*%
%TO.N,unconnected-(J1-Pin_7-Pad7)*%
X159500000Y-100260000D03*
%TO.P,J1,8,Pin_8*%
%TO.N,unconnected-(J1-Pin_8-Pad8)*%
X162040000Y-100260000D03*
%TO.P,J1,9,Pin_9*%
%TO.N,/I2C_SCL*%
X159500000Y-102800000D03*
%TO.P,J1,10,Pin_10*%
%TO.N,/I2C_SDA*%
X162040000Y-102800000D03*
%TD*%
D24*
%TO.P,R10,1*%
%TO.N,+3.3V*%
X168800000Y-90500000D03*
%TO.P,R10,2*%
%TO.N,/~{RESET}*%
X169995000Y-90500000D03*
%TD*%
D25*
%TO.P,C4,1*%
%TO.N,GND*%
X143067500Y-112900000D03*
%TO.P,C4,2*%
%TO.N,+3.3V*%
X141932500Y-112900000D03*
%TD*%
D20*
%TO.P,R3,1*%
%TO.N,Net-(J2-Pin_2)*%
X154900000Y-109800000D03*
%TO.P,R3,2*%
%TO.N,+3.3V*%
X154900000Y-108605000D03*
%TD*%
D25*
%TO.P,C6,1*%
%TO.N,GND*%
X153067500Y-104900000D03*
%TO.P,C6,2*%
%TO.N,+3.3V*%
X151932500Y-104900000D03*
%TD*%
D24*
%TO.P,R2,1*%
%TO.N,VBUS*%
X129305000Y-94000000D03*
%TO.P,R2,2*%
%TO.N,Net-(U1-ON{slash}~{OFF})*%
X130500000Y-94000000D03*
%TD*%
D26*
%TO.P,J6,1,Pin_1*%
%TO.N,unconnected-(J6-Pin_1-Pad1)*%
X168830000Y-93520000D03*
D27*
%TO.P,J6,2,Pin_2*%
%TO.N,unconnected-(J6-Pin_2-Pad2)*%
X170100000Y-93520000D03*
%TO.P,J6,3,Pin_3*%
%TO.N,unconnected-(J6-Pin_3-Pad3)*%
X168830000Y-94790000D03*
%TO.P,J6,4,Pin_4*%
%TO.N,/~{RESET}*%
X170100000Y-94790000D03*
%TO.P,J6,5,Pin_5*%
%TO.N,unconnected-(J6-Pin_5-Pad5)*%
X168830000Y-96060000D03*
%TO.P,J6,6,Pin_6*%
%TO.N,GND*%
X170100000Y-96060000D03*
%TO.P,J6,7,Pin_7*%
%TO.N,unconnected-(J6-Pin_7-Pad7)*%
X168830000Y-97330000D03*
%TO.P,J6,8,Pin_8*%
%TO.N,GND*%
X170100000Y-97330000D03*
%TO.P,J6,9,Pin_9*%
%TO.N,unconnected-(J6-Pin_9-Pad9)*%
X168830000Y-98600000D03*
%TO.P,J6,10,Pin_10*%
%TO.N,GND*%
X170100000Y-98600000D03*
%TO.P,J6,11,Pin_11*%
%TO.N,/SPI_SCK*%
X168830000Y-99870000D03*
%TO.P,J6,12,Pin_12*%
%TO.N,/SPI_SSN*%
X170100000Y-99870000D03*
%TO.P,J6,13,Pin_13*%
%TO.N,/SPI_MISO*%
X168830000Y-101140000D03*
%TO.P,J6,14,Pin_14*%
%TO.N,/SPI_MOSI*%
X170100000Y-101140000D03*
%TO.P,J6,15,Pin_15*%
%TO.N,unconnected-(J6-Pin_15-Pad15)*%
X168830000Y-102410000D03*
%TO.P,J6,16,Pin_16*%
%TO.N,unconnected-(J6-Pin_16-Pad16)*%
X170100000Y-102410000D03*
%TD*%
D24*
%TO.P,R6,1*%
%TO.N,+3.3V*%
X135000000Y-109900000D03*
%TO.P,R6,2*%
%TO.N,Net-(U2-~{RESET})*%
X136195000Y-109900000D03*
%TD*%
D28*
%TO.P,J5,1,Pin_1*%
%TO.N,Net-(J5-Pin_1)*%
X152600000Y-101200000D03*
D29*
%TO.P,J5,2,Pin_2*%
%TO.N,/~{RESET}*%
X153900000Y-101200000D03*
%TD*%
D24*
%TO.P,R1,1*%
%TO.N,Net-(U1-VOUT)*%
X137705000Y-88000000D03*
%TO.P,R1,2*%
%TO.N,+3.3V*%
X138900000Y-88000000D03*
%TD*%
D30*
%TO.P,U2,1,GND*%
%TO.N,GND*%
X138375000Y-101875000D03*
%TO.P,U2,2,OSCI*%
%TO.N,Net-(U2-OSCI)*%
X138375000Y-102375000D03*
%TO.P,U2,3,OSCO*%
%TO.N,Net-(U2-OSCO)*%
X138375000Y-102875000D03*
%TO.P,U2,4,VPHY*%
%TO.N,Net-(U2-VPHY)*%
X138375000Y-103375000D03*
%TO.P,U2,5,GND*%
%TO.N,GND*%
X138375000Y-103875000D03*
%TO.P,U2,6,REF*%
%TO.N,Net-(U2-REF)*%
X138375000Y-104375000D03*
%TO.P,U2,7,DM*%
%TO.N,/USB-*%
X138375000Y-104875000D03*
%TO.P,U2,8,DP*%
%TO.N,/USB+*%
X138375000Y-105375000D03*
%TO.P,U2,9,VPLL*%
%TO.N,Net-(U2-VPLL)*%
X138375000Y-105875000D03*
%TO.P,U2,10,AGND*%
%TO.N,GND*%
X138375000Y-106375000D03*
%TO.P,U2,11,GND*%
X138375000Y-106875000D03*
%TO.P,U2,12,VCORE*%
%TO.N,Net-(U2-VREGOUT)*%
X138375000Y-107375000D03*
%TO.P,U2,13,TEST*%
%TO.N,GND*%
X138375000Y-107875000D03*
%TO.P,U2,14,~{RESET}*%
%TO.N,Net-(U2-~{RESET})*%
X138375000Y-108375000D03*
%TO.P,U2,15,GND*%
%TO.N,GND*%
X138375000Y-108875000D03*
%TO.P,U2,16,ADBUS0*%
%TO.N,/I2C_SCL*%
X138375000Y-109375000D03*
D31*
%TO.P,U2,17,ADBUS1*%
%TO.N,/I2C_SDA*%
X140300000Y-111300000D03*
%TO.P,U2,18,ADBUS2*%
X140800000Y-111300000D03*
%TO.P,U2,19,ADBUS3*%
%TO.N,unconnected-(U2-ADBUS3-Pad19)*%
X141300000Y-111300000D03*
%TO.P,U2,20,VCCIO*%
%TO.N,+3.3V*%
X141800000Y-111300000D03*
%TO.P,U2,21,ADBUS4*%
%TO.N,unconnected-(U2-ADBUS4-Pad21)*%
X142300000Y-111300000D03*
%TO.P,U2,22,ADBUS5*%
%TO.N,unconnected-(U2-ADBUS5-Pad22)*%
X142800000Y-111300000D03*
%TO.P,U2,23,ADBUS6*%
%TO.N,unconnected-(U2-ADBUS6-Pad23)*%
X143300000Y-111300000D03*
%TO.P,U2,24,ADBUS7*%
%TO.N,unconnected-(U2-ADBUS7-Pad24)*%
X143800000Y-111300000D03*
%TO.P,U2,25,GND*%
%TO.N,GND*%
X144300000Y-111300000D03*
%TO.P,U2,26,ACBUS0*%
%TO.N,unconnected-(U2-ACBUS0-Pad26)*%
X144800000Y-111300000D03*
%TO.P,U2,27,ACBUS1*%
%TO.N,unconnected-(U2-ACBUS1-Pad27)*%
X145300000Y-111300000D03*
%TO.P,U2,28,ACBUS2*%
%TO.N,unconnected-(U2-ACBUS2-Pad28)*%
X145800000Y-111300000D03*
%TO.P,U2,29,ACBUS3*%
%TO.N,unconnected-(U2-ACBUS3-Pad29)*%
X146300000Y-111300000D03*
%TO.P,U2,30,ACBUS4*%
%TO.N,unconnected-(U2-ACBUS4-Pad30)*%
X146800000Y-111300000D03*
%TO.P,U2,31,VCCIO*%
%TO.N,+3.3V*%
X147300000Y-111300000D03*
%TO.P,U2,32,ACBUS5*%
%TO.N,unconnected-(U2-ACBUS5-Pad32)*%
X147800000Y-111300000D03*
D30*
%TO.P,U2,33,ACBUS6*%
%TO.N,unconnected-(U2-ACBUS6-Pad33)*%
X149725000Y-109375000D03*
%TO.P,U2,34,ACBUS7*%
%TO.N,unconnected-(U2-ACBUS7-Pad34)*%
X149725000Y-108875000D03*
%TO.P,U2,35,GND*%
%TO.N,GND*%
X149725000Y-108375000D03*
%TO.P,U2,36,~{SUSPEND}*%
%TO.N,unconnected-(U2-~{SUSPEND}-Pad36)*%
X149725000Y-107875000D03*
%TO.P,U2,37,VCORE*%
%TO.N,Net-(U2-VREGOUT)*%
X149725000Y-107375000D03*
%TO.P,U2,38,BDBUS0*%
%TO.N,/SPI_SCK*%
X149725000Y-106875000D03*
%TO.P,U2,39,BDBUS1*%
%TO.N,/SPI_MOSI*%
X149725000Y-106375000D03*
%TO.P,U2,40,BDBUS2*%
%TO.N,/SPI_MISO*%
X149725000Y-105875000D03*
%TO.P,U2,41,BDBUS3*%
%TO.N,/SPI_SSN*%
X149725000Y-105375000D03*
%TO.P,U2,42,VCCIO*%
%TO.N,+3.3V*%
X149725000Y-104875000D03*
%TO.P,U2,43,BDBUS4*%
%TO.N,unconnected-(U2-BDBUS4-Pad43)*%
X149725000Y-104375000D03*
%TO.P,U2,44,BDBUS5*%
%TO.N,unconnected-(U2-BDBUS5-Pad44)*%
X149725000Y-103875000D03*
%TO.P,U2,45,BDBUS6*%
%TO.N,unconnected-(U2-BDBUS6-Pad45)*%
X149725000Y-103375000D03*
%TO.P,U2,46,BDBUS7*%
%TO.N,unconnected-(U2-BDBUS7-Pad46)*%
X149725000Y-102875000D03*
%TO.P,U2,47,GND*%
%TO.N,GND*%
X149725000Y-102375000D03*
%TO.P,U2,48,BCBUS0*%
%TO.N,Net-(J5-Pin_1)*%
X149725000Y-101875000D03*
D31*
%TO.P,U2,49,VREGOUT*%
%TO.N,Net-(U2-VREGOUT)*%
X147800000Y-99950000D03*
%TO.P,U2,50,VREGIN*%
%TO.N,+3.3V*%
X147300000Y-99950000D03*
%TO.P,U2,51,GND*%
%TO.N,GND*%
X146800000Y-99950000D03*
%TO.P,U2,52,BCBUS1*%
%TO.N,unconnected-(U2-BCBUS1-Pad52)*%
X146300000Y-99950000D03*
%TO.P,U2,53,BCBUS2*%
%TO.N,unconnected-(U2-BCBUS2-Pad53)*%
X145800000Y-99950000D03*
%TO.P,U2,54,BCBUS3*%
%TO.N,unconnected-(U2-BCBUS3-Pad54)*%
X145300000Y-99950000D03*
%TO.P,U2,55,BCBUS4*%
%TO.N,unconnected-(U2-BCBUS4-Pad55)*%
X144800000Y-99950000D03*
%TO.P,U2,56,VCCIO*%
%TO.N,+3.3V*%
X144300000Y-99950000D03*
%TO.P,U2,57,BCBUS5*%
%TO.N,unconnected-(U2-BCBUS5-Pad57)*%
X143800000Y-99950000D03*
%TO.P,U2,58,BCBUS6*%
%TO.N,unconnected-(U2-BCBUS6-Pad58)*%
X143300000Y-99950000D03*
%TO.P,U2,59,BCBUS7*%
%TO.N,unconnected-(U2-BCBUS7-Pad59)*%
X142800000Y-99950000D03*
%TO.P,U2,60,~{PWREN}*%
%TO.N,unconnected-(U2-~{PWREN}-Pad60)*%
X142300000Y-99950000D03*
%TO.P,U2,61,EEDATA*%
%TO.N,Net-(U2-EEDATA)*%
X141800000Y-99950000D03*
%TO.P,U2,62,EECLK*%
%TO.N,Net-(U2-EECLK)*%
X141300000Y-99950000D03*
%TO.P,U2,63,EECS*%
%TO.N,Net-(U2-EECS)*%
X140800000Y-99950000D03*
%TO.P,U2,64,VCORE*%
%TO.N,Net-(U2-VREGOUT)*%
X140300000Y-99950000D03*
%TD*%
D25*
%TO.P,C7,1*%
%TO.N,GND*%
X146400000Y-97700000D03*
%TO.P,C7,2*%
%TO.N,+3.3V*%
X145265000Y-97700000D03*
%TD*%
D32*
%TO.P,Y1,1,1*%
%TO.N,Net-(U2-OSCO)*%
X138150000Y-95800000D03*
%TO.P,Y1,2,2*%
%TO.N,GND*%
X138150000Y-92700000D03*
%TO.P,Y1,3,3*%
%TO.N,Net-(U2-OSCI)*%
X135650000Y-92700000D03*
%TO.P,Y1,4,4*%
%TO.N,GND*%
X135650000Y-95800000D03*
%TD*%
D25*
%TO.P,C15,1*%
%TO.N,Net-(U2-VREGOUT)*%
X136100000Y-107700000D03*
%TO.P,C15,2*%
%TO.N,GND*%
X134965000Y-107700000D03*
%TD*%
D33*
%TO.P,C18,1*%
%TO.N,GND*%
X140000000Y-93800000D03*
%TO.P,C18,2*%
%TO.N,Net-(U2-OSCO)*%
X140000000Y-94935000D03*
%TD*%
D34*
%TO.P,FID2,*%
%TO.N,*%
X165200000Y-112300000D03*
%TD*%
D35*
%TO.P,R5,1*%
%TO.N,GND*%
X136000000Y-102705000D03*
%TO.P,R5,2*%
%TO.N,Net-(U2-REF)*%
X136000000Y-103900000D03*
%TD*%
D16*
%TO.P,C5,1*%
%TO.N,GND*%
X146032500Y-112900000D03*
%TO.P,C5,2*%
%TO.N,+3.3V*%
X147167500Y-112900000D03*
%TD*%
D36*
%TO.P,C10,1*%
%TO.N,GND*%
X125737500Y-91700000D03*
%TO.P,C10,2*%
%TO.N,VBUS*%
X127462500Y-91700000D03*
%TD*%
D25*
%TO.P,C17,1*%
%TO.N,GND*%
X136167500Y-97700000D03*
%TO.P,C17,2*%
%TO.N,Net-(U2-OSCI)*%
X135032500Y-97700000D03*
%TD*%
%TO.P,C11,1*%
%TO.N,GND*%
X135467500Y-89800000D03*
%TO.P,C11,2*%
%TO.N,Net-(U1-VOUT)*%
X134332500Y-89800000D03*
%TD*%
D34*
%TO.P,FID1,*%
%TO.N,*%
X129500000Y-86100000D03*
%TD*%
D37*
%TO.N,Net-(U2-VREGOUT)*%
X140536549Y-107920050D03*
X139300000Y-99500000D03*
%TO.N,GND*%
X148238000Y-87762500D03*
X146600000Y-101400000D03*
X139600000Y-101700000D03*
X130800000Y-91500000D03*
X141600000Y-106500000D03*
X151400000Y-102300000D03*
X137400000Y-97800000D03*
X137900000Y-91100000D03*
X139800000Y-104400000D03*
X140200000Y-108875002D03*
X140900000Y-93800000D03*
X148400000Y-108400000D03*
X134000000Y-107100000D03*
X152900000Y-103900000D03*
X144700000Y-112900000D03*
X126450000Y-92950000D03*
%TO.N,+3.3V*%
X143600000Y-98300000D03*
X147015000Y-109940000D03*
X141800000Y-110000000D03*
X138900000Y-88000000D03*
X143700000Y-89500000D03*
X148437000Y-104799000D03*
X136501000Y-110813000D03*
X147235000Y-102966000D03*
%TO.N,Net-(U2-VPLL)*%
X133400000Y-106300000D03*
X139613000Y-105891000D03*
%TO.N,VBUS*%
X125595000Y-97689500D03*
%TO.N,Net-(U1-BP)*%
X133000000Y-93100000D03*
%TO.N,Net-(U2-VPHY)*%
X139771000Y-103312000D03*
X134600000Y-101800000D03*
%TO.N,/USB-*%
X131500000Y-97300000D03*
%TO.N,/USB+*%
X130800000Y-99500000D03*
%TO.N,/I2C_SDA*%
X155022000Y-111282000D03*
%TO.N,/I2C_SCL*%
X158300000Y-104900000D03*
%TO.N,/SPI_MOSI*%
X160600000Y-104300000D03*
X152166000Y-106100000D03*
%TO.N,/SPI_SCK*%
X153000000Y-107125000D03*
%TO.N,/SPI_SSN*%
X155167000Y-102967000D03*
X148200000Y-105800000D03*
%TO.N,/SPI_MISO*%
X158043000Y-101483000D03*
X151217000Y-105625000D03*
%TO.N,Net-(U2-EECS)*%
X144400000Y-93600000D03*
%TO.N,Net-(U2-EECLK)*%
X146300000Y-92700000D03*
%TO.N,Net-(U2-EEDATA)*%
X146200000Y-91700000D03*
%TD*%
D38*
%TO.N,Net-(U2-VREGOUT)*%
X149725000Y-107375000D02*
X147875000Y-107375000D01*
X140532000Y-105400000D02*
X140777000Y-105155000D01*
D39*
X146400000Y-105400000D02*
X146600000Y-105600000D01*
D38*
X140777000Y-105155000D02*
X140777000Y-101272592D01*
D39*
X140532000Y-107300000D02*
X140532000Y-106846000D01*
D40*
X136525000Y-107375000D02*
X138375000Y-107375000D01*
X136200000Y-107700000D02*
X136525000Y-107375000D01*
D38*
X147100000Y-106100000D02*
X146800000Y-105800000D01*
X147800000Y-99950000D02*
X148146000Y-100296000D01*
X147800000Y-107300000D02*
X147800000Y-106800000D01*
D40*
X140300000Y-99950000D02*
X139750000Y-99950000D01*
X139750000Y-99950000D02*
X139300000Y-99500000D01*
D39*
X146600000Y-105600000D02*
X146800000Y-105800000D01*
X140532000Y-105400000D02*
X146400000Y-105400000D01*
D41*
X140064000Y-107314000D02*
X140447000Y-107314000D01*
D39*
X146800000Y-105800000D02*
X147100000Y-106100000D01*
D38*
X151475000Y-107375000D02*
X151800000Y-107700000D01*
D41*
X139991499Y-107375000D02*
X140536549Y-107920050D01*
D38*
X147800000Y-106800000D02*
X147100000Y-106100000D01*
D39*
X140532000Y-106846000D02*
X140532000Y-105400000D01*
D41*
X140532000Y-106846000D02*
X140532000Y-107300000D01*
D38*
X146600000Y-105600000D02*
X146800000Y-105800000D01*
X146600000Y-104700000D02*
X146600000Y-105600000D01*
X148146000Y-100296000D02*
X148146000Y-103154000D01*
X148146000Y-103154000D02*
X146600000Y-104700000D01*
X140300000Y-100795592D02*
X140300000Y-99950000D01*
X140777000Y-101272592D02*
X140300000Y-100795592D01*
D41*
X138375000Y-107375000D02*
X139991499Y-107375000D01*
D38*
X149725000Y-107375000D02*
X151475000Y-107375000D01*
%TO.N,GND*%
X146800000Y-99950000D02*
X146800000Y-98100000D01*
D40*
X137170000Y-103875000D02*
X136000000Y-102705000D01*
D41*
X134965000Y-107700000D02*
X135790000Y-106875000D01*
D38*
X151325000Y-102375000D02*
X151400000Y-102300000D01*
D40*
X139199998Y-107875000D02*
X140200000Y-108875002D01*
X140200000Y-108875002D02*
X139900002Y-108875002D01*
D39*
X124200000Y-101000000D02*
X124200000Y-98900000D01*
D42*
X144300000Y-112900000D02*
X144700000Y-112900000D01*
D39*
X141668000Y-107300000D02*
X145700000Y-107300000D01*
D40*
X138375000Y-103875000D02*
X137170000Y-103875000D01*
D38*
X138375000Y-108875000D02*
X139975000Y-108875000D01*
D42*
X140900000Y-93800000D02*
X140000000Y-93800000D01*
D43*
X135468000Y-90458200D02*
X135468000Y-89800000D01*
D42*
X135468000Y-90458200D02*
X135468000Y-90458700D01*
D38*
X149725000Y-108375000D02*
X148425000Y-108375000D01*
D40*
X138375000Y-103875000D02*
X139275000Y-103875000D01*
D42*
X135468000Y-90458700D02*
X135468000Y-91117500D01*
X141600000Y-106500000D02*
X141600000Y-107232000D01*
D39*
X137850000Y-91250000D02*
X137900000Y-91300000D01*
D38*
X136900000Y-106875000D02*
X138375000Y-106875000D01*
D39*
X141460000Y-108875000D02*
X139975000Y-108875000D01*
X137700000Y-91100000D02*
X137900000Y-91300000D01*
D41*
X135790000Y-106875000D02*
X136900000Y-106875000D01*
D39*
X126650000Y-93150000D02*
X126450000Y-92950000D01*
D38*
X130800000Y-91500000D02*
X130900000Y-91600000D01*
D39*
X130900000Y-91600000D02*
X133600000Y-91600000D01*
D38*
X146800000Y-98100000D02*
X146400000Y-97700000D01*
D39*
X125738000Y-92237500D02*
X125738000Y-91700000D01*
X139250000Y-93800000D02*
X138150000Y-92700000D01*
D42*
X136168000Y-97700000D02*
X136168000Y-96317500D01*
D39*
X141668000Y-108668000D02*
X141668000Y-107400000D01*
X139975000Y-108875000D02*
X140199998Y-108875000D01*
D42*
X136268000Y-97800000D02*
X136168000Y-97700000D01*
D38*
X144300000Y-110454000D02*
X142721000Y-108875000D01*
D40*
X134600000Y-107700000D02*
X134000000Y-107100000D01*
D38*
X148400000Y-108400000D02*
X148375000Y-108375000D01*
D42*
X153068000Y-104900000D02*
X153068000Y-104067000D01*
D38*
X148425000Y-108375000D02*
X148400000Y-108400000D01*
D39*
X126875000Y-99000000D02*
X126875000Y-100675000D01*
D42*
X141600000Y-107232000D02*
X141668000Y-107300000D01*
D39*
X133600000Y-91600000D02*
X133950000Y-91250000D01*
D38*
X130800000Y-91500000D02*
X129850000Y-91500000D01*
D42*
X137400000Y-97800000D02*
X136268000Y-97800000D01*
D38*
X146800000Y-101200000D02*
X146600000Y-101400000D01*
X144300000Y-111300000D02*
X144300000Y-110454000D01*
D40*
X139425000Y-101875000D02*
X139600000Y-101700000D01*
D38*
X151340000Y-108375000D02*
X151800000Y-108835000D01*
D39*
X126650000Y-100900000D02*
X124300000Y-100900000D01*
X126200000Y-94500000D02*
X124300000Y-94500000D01*
D38*
X144300000Y-111300000D02*
X144300000Y-112900000D01*
D42*
X135650000Y-95400000D02*
X138150000Y-92900000D01*
D40*
X138375000Y-106375000D02*
X138375000Y-106875000D01*
D39*
X137900000Y-91100000D02*
X137700000Y-91100000D01*
D43*
X141668000Y-107400000D02*
X141668000Y-107300000D01*
D42*
X144700000Y-112900000D02*
X146032000Y-112900000D01*
D40*
X139275000Y-103875000D02*
X139800000Y-104400000D01*
D39*
X148238000Y-87762700D02*
X147375000Y-86900000D01*
D42*
X153068000Y-104067000D02*
X152900000Y-103900000D01*
D39*
X126450000Y-92950000D02*
X125738000Y-92237500D01*
D40*
X138375000Y-101875000D02*
X139425000Y-101875000D01*
D43*
X135468000Y-90458700D02*
X135468000Y-90458200D01*
X148238000Y-87762500D02*
X148238000Y-87762700D01*
D38*
X146775000Y-108375000D02*
X145700000Y-107300000D01*
D39*
X124200000Y-96500000D02*
X124200000Y-98900000D01*
D38*
X148375000Y-108375000D02*
X146775000Y-108375000D01*
D39*
X137900000Y-91300000D02*
X137900000Y-91100000D01*
X133950000Y-91250000D02*
X137850000Y-91250000D01*
X147375000Y-86900000D02*
X146168000Y-86900000D01*
D42*
X143068000Y-112900000D02*
X144300000Y-112900000D01*
D39*
X140000000Y-93800000D02*
X139250000Y-93800000D01*
D40*
X138375000Y-107875000D02*
X139199998Y-107875000D01*
D39*
X126650000Y-94500000D02*
X126650000Y-93150000D01*
X149000000Y-88525000D02*
X148238000Y-87762700D01*
X141460000Y-108875000D02*
X141668000Y-108668000D01*
D40*
X134965000Y-107700000D02*
X134600000Y-107700000D01*
D39*
X142721000Y-108875000D02*
X141460000Y-108875000D01*
X124200000Y-96500000D02*
X126200000Y-94500000D01*
X140199998Y-108875000D02*
X140200000Y-108875002D01*
D38*
X146800000Y-99950000D02*
X146800000Y-101200000D01*
D39*
X137900000Y-91300000D02*
X137900000Y-92450000D01*
D38*
X149725000Y-102375000D02*
X151325000Y-102375000D01*
D42*
X135468000Y-89800000D02*
X135468000Y-90458200D01*
D39*
X149000000Y-89500000D02*
X149000000Y-88525000D01*
D38*
X149725000Y-108375000D02*
X151340000Y-108375000D01*
D40*
X139900002Y-108875002D02*
X139900000Y-108875000D01*
D38*
%TO.N,+3.3V*%
X144300000Y-99950000D02*
X144300000Y-101900000D01*
X144577000Y-102177000D02*
X146923000Y-102177000D01*
D43*
X143932000Y-88000000D02*
X145032000Y-86900000D01*
D38*
X148512000Y-104875000D02*
X148437000Y-104799000D01*
D40*
X141800000Y-111300000D02*
X141800000Y-112768000D01*
X141800000Y-111300000D02*
X141800000Y-110000000D01*
D43*
X147234000Y-112834000D02*
X147168000Y-112900000D01*
X145400000Y-85500000D02*
X164800000Y-85500000D01*
D40*
X153750000Y-108154000D02*
X153750000Y-106623000D01*
X143700000Y-89500000D02*
X145190000Y-89500000D01*
D42*
X138900000Y-88000000D02*
X142200000Y-88000000D01*
D43*
X142200000Y-88000000D02*
X143932000Y-88000000D01*
X164800000Y-85500000D02*
X168800000Y-89500000D01*
D40*
X147300000Y-111300000D02*
X147300000Y-112768000D01*
D43*
X168800000Y-89500000D02*
X168800000Y-90500000D01*
D38*
X147477000Y-100978000D02*
X147300000Y-100801000D01*
X149725000Y-104875000D02*
X151908000Y-104875000D01*
D39*
X143832000Y-98532500D02*
X143600000Y-98300000D01*
D38*
X144300000Y-101900000D02*
X144577000Y-102177000D01*
X147000000Y-102100000D02*
X147477000Y-101623000D01*
X146923000Y-102177000D02*
X147000000Y-102100000D01*
X147477000Y-101623000D02*
X147477000Y-100978000D01*
D40*
X147300000Y-111300000D02*
X147300000Y-110225000D01*
D42*
X142200000Y-88000000D02*
X143700000Y-89500000D01*
D40*
X135913000Y-110813000D02*
X135000000Y-109900000D01*
D39*
X145265000Y-97700000D02*
X144432000Y-98532500D01*
D40*
X136501000Y-110813000D02*
X135913000Y-110813000D01*
X153750000Y-106623000D02*
X152027000Y-104900000D01*
X147300000Y-110225000D02*
X147015000Y-109940000D01*
D43*
X145032000Y-86900000D02*
X145032000Y-85867500D01*
D39*
X147000000Y-102100000D02*
X147235000Y-102335000D01*
D38*
X149725000Y-104875000D02*
X148512000Y-104875000D01*
D39*
X147235000Y-102335000D02*
X147235000Y-102966000D01*
D43*
X145032000Y-85867500D02*
X145400000Y-85500000D01*
D40*
X154900000Y-108605000D02*
X153302000Y-108605000D01*
D39*
X144432000Y-98532500D02*
X143832000Y-98532500D01*
D38*
X144300000Y-98665000D02*
X145265000Y-97700000D01*
D40*
X153301000Y-108604000D02*
X153750000Y-108154000D01*
D38*
X144300000Y-99950000D02*
X144300000Y-98665000D01*
X147300000Y-100801000D02*
X147300000Y-99950000D01*
D41*
%TO.N,Net-(U2-VPLL)*%
X138375000Y-105875000D02*
X139597000Y-105875000D01*
X138375000Y-105875000D02*
X137125000Y-105875000D01*
X139597000Y-105875000D02*
X139613000Y-105891000D01*
X136700000Y-106300000D02*
X133400000Y-106300000D01*
X137125000Y-105875000D02*
X136700000Y-106300000D01*
D39*
%TO.N,VBUS*%
X128300000Y-95700000D02*
X128300000Y-94000000D01*
X128300000Y-90500000D02*
X128300000Y-91700000D01*
D43*
X127462500Y-91700000D02*
X128300000Y-91700000D01*
D39*
X128300000Y-94000000D02*
X129305000Y-94000000D01*
D40*
X125600000Y-97000000D02*
X126200000Y-96400000D01*
D39*
X128300000Y-91700000D02*
X128300000Y-94000000D01*
X127600000Y-96400000D02*
X128300000Y-95700000D01*
D40*
X126200000Y-96400000D02*
X126875000Y-96400000D01*
D39*
X129800000Y-90500000D02*
X128300000Y-90500000D01*
D40*
X125600000Y-97684700D02*
X125600000Y-97000000D01*
D39*
X126875000Y-96400000D02*
X127600000Y-96400000D01*
D40*
X125595000Y-97689500D02*
X125600000Y-97684700D01*
D42*
%TO.N,Net-(U1-VOUT)*%
X133365000Y-88535000D02*
X132075000Y-89825000D01*
X133365000Y-88535000D02*
X137170000Y-88535000D01*
X134332000Y-88567000D02*
X134300000Y-88535000D01*
X137705000Y-88000000D02*
X137170000Y-88535000D01*
X134332000Y-89800000D02*
X134332000Y-89483700D01*
X134332000Y-89483700D02*
X134332000Y-88567000D01*
X132075000Y-89825000D02*
X132075000Y-90500000D01*
D43*
X134332000Y-89483700D02*
X134332000Y-89800000D01*
D38*
%TO.N,Net-(U1-BP)*%
X132775000Y-93100000D02*
X132075000Y-92400000D01*
X133000000Y-93100000D02*
X132775000Y-93100000D01*
D41*
%TO.N,Net-(U2-VPHY)*%
X136800000Y-101100000D02*
X135300000Y-101100000D01*
X139709000Y-103375000D02*
X139771000Y-103312000D01*
X138375000Y-103375000D02*
X139709000Y-103375000D01*
X137532000Y-103375000D02*
X136800000Y-102643000D01*
X135300000Y-101100000D02*
X134600000Y-101800000D01*
X136800000Y-102643000D02*
X136800000Y-101100000D01*
X138375000Y-103375000D02*
X137532000Y-103375000D01*
D40*
%TO.N,Net-(U2-OSCI)*%
X133900000Y-94450000D02*
X133900000Y-97274500D01*
X135650000Y-92700000D02*
X133900000Y-94450000D01*
X137225000Y-102325000D02*
X137275000Y-102375000D01*
X133900000Y-97274500D02*
X133900000Y-97599000D01*
X137275000Y-102375000D02*
X138375000Y-102375000D01*
X137225000Y-100924000D02*
X137225000Y-102325000D01*
D41*
X134607000Y-97274500D02*
X135032000Y-97700000D01*
D40*
X133900000Y-97599000D02*
X137225000Y-100924000D01*
D41*
X133900000Y-97274500D02*
X134607000Y-97274500D01*
D40*
%TO.N,Net-(U2-OSCO)*%
X140350000Y-101449462D02*
X139850538Y-100950000D01*
X140350000Y-102010661D02*
X140350000Y-101449462D01*
X139015000Y-94935000D02*
X140000000Y-94935000D01*
X139910661Y-102450000D02*
X140350000Y-102010661D01*
X138150000Y-95800000D02*
X139015000Y-94935000D01*
X139850538Y-100950000D02*
X139415686Y-100950000D01*
X138150000Y-99684314D02*
X138150000Y-95800000D01*
X138375000Y-102875000D02*
X139182000Y-102875000D01*
X139607000Y-102450000D02*
X139910661Y-102450000D01*
X139182000Y-102875000D02*
X139607000Y-102450000D01*
X139415686Y-100950000D02*
X138150000Y-99684314D01*
%TO.N,/USB-*%
X127888000Y-97050000D02*
X126875000Y-97050000D01*
X131500000Y-97300000D02*
X130600000Y-97300000D01*
X129868000Y-97150000D02*
X127988000Y-97150000D01*
X131925000Y-102307000D02*
X131925000Y-99206800D01*
X134518000Y-104900000D02*
X131925000Y-102307000D01*
X137187000Y-104900000D02*
X134518000Y-104900000D01*
X130309000Y-97590900D02*
X129868000Y-97150000D01*
X130600000Y-97300000D02*
X130309000Y-97590900D01*
X137212000Y-104875000D02*
X137187000Y-104900000D01*
X127988000Y-97150000D02*
X127888000Y-97050000D01*
X138375000Y-104875000D02*
X137212000Y-104875000D01*
X131925000Y-99206800D02*
X130309000Y-97590900D01*
%TO.N,/USB+*%
X131475000Y-99393200D02*
X129682000Y-97600000D01*
X134332000Y-105350000D02*
X131475000Y-102493000D01*
X138375000Y-105375000D02*
X137212000Y-105375000D01*
X137212000Y-105375000D02*
X137187000Y-105350000D01*
X131475000Y-102493000D02*
X131475000Y-99393200D01*
X127988000Y-97600000D02*
X127888000Y-97700000D01*
X131368000Y-99500000D02*
X131475000Y-99393200D01*
X137187000Y-105350000D02*
X134332000Y-105350000D01*
X130800000Y-99500000D02*
X131368000Y-99500000D01*
X129682000Y-97600000D02*
X127988000Y-97600000D01*
X127888000Y-97700000D02*
X126875000Y-97700000D01*
%TO.N,/I2C_SDA*%
X140800000Y-112042000D02*
X140800000Y-111300000D01*
X153800000Y-113100000D02*
X155022000Y-111878000D01*
X141817000Y-113800000D02*
X140800000Y-112783000D01*
X152700000Y-113800000D02*
X141817000Y-113800000D01*
X140800000Y-112783000D02*
X140800000Y-112042000D01*
X153400000Y-113100000D02*
X152700000Y-113800000D01*
X155022000Y-111878000D02*
X155022000Y-111282000D01*
D41*
X140800000Y-112042000D02*
X140300000Y-111542000D01*
D40*
%TO.N,/I2C_SCL*%
X158900000Y-105500000D02*
X158300000Y-104900000D01*
X138375000Y-110923686D02*
X138375000Y-109375000D01*
X157300000Y-113000000D02*
X158055000Y-113000000D01*
X158055000Y-113000000D02*
X158900000Y-112155000D01*
X156100000Y-114200000D02*
X141651314Y-114200000D01*
X158900000Y-112155000D02*
X158900000Y-105500000D01*
X157300000Y-113000000D02*
X156100000Y-114200000D01*
X141651314Y-114200000D02*
X138375000Y-110923686D01*
%TO.N,Net-(J2-Pin_2)*%
X155400000Y-109800000D02*
X154900000Y-109800000D01*
X157300000Y-111700000D02*
X155400000Y-109800000D01*
%TO.N,Net-(J3-Pin_2)*%
X153400000Y-111800000D02*
X153400000Y-109898000D01*
D41*
%TO.N,/~{RESET}*%
X171400000Y-92710000D02*
X169995000Y-91305000D01*
X168095000Y-91305000D02*
X169995000Y-91305000D01*
X153900000Y-101200000D02*
X158650000Y-96450000D01*
X170910000Y-94790000D02*
X171400000Y-94300000D01*
X171400000Y-94300000D02*
X171400000Y-92710000D01*
X169995000Y-91305000D02*
X169995000Y-90500000D01*
X158650000Y-96450000D02*
X162950000Y-96450000D01*
X162950000Y-96450000D02*
X168095000Y-91305000D01*
X170100000Y-94790000D02*
X170910000Y-94790000D01*
D40*
%TO.N,Net-(J5-Pin_1)*%
X149725000Y-101875000D02*
X150725000Y-101875000D01*
X150725000Y-101875000D02*
X151400000Y-101200000D01*
X151400000Y-101200000D02*
X152600000Y-101200000D01*
%TO.N,/SPI_MOSI*%
X171400000Y-102900000D02*
X170000000Y-104300000D01*
X170100000Y-101140000D02*
X171400000Y-102440000D01*
X171400000Y-102440000D02*
X171400000Y-102900000D01*
X151891000Y-106375000D02*
X152166000Y-106100000D01*
X170000000Y-104300000D02*
X160600000Y-104300000D01*
X149725000Y-106375000D02*
X151891000Y-106375000D01*
D41*
%TO.N,/SPI_SCK*%
X149725000Y-106875000D02*
X152750000Y-106875000D01*
X152750000Y-106875000D02*
X153000000Y-107125000D01*
D40*
%TO.N,/SPI_SSN*%
X148493000Y-105800000D02*
X148918000Y-105375000D01*
X148918000Y-105375000D02*
X149725000Y-105375000D01*
X170100000Y-99870000D02*
X172000000Y-101770000D01*
X148200000Y-105800000D02*
X148493000Y-105800000D01*
X157767000Y-102967000D02*
X155167000Y-102967000D01*
X172000000Y-102866000D02*
X169216000Y-105650000D01*
X160450000Y-105650000D02*
X157767000Y-102967000D01*
X172000000Y-101770000D02*
X172000000Y-102866000D01*
X169216000Y-105650000D02*
X160450000Y-105650000D01*
D41*
%TO.N,/SPI_MISO*%
X168830000Y-101140000D02*
X168003000Y-101140000D01*
X149725000Y-105875000D02*
X150967000Y-105875000D01*
X150967000Y-105875000D02*
X151217000Y-105625000D01*
X167661000Y-101483000D02*
X158043000Y-101483000D01*
X168003000Y-101140000D02*
X167661000Y-101483000D01*
%TO.N,Net-(U1-ON{slash}~{OFF})*%
X130500000Y-93100000D02*
X129800000Y-92400000D01*
X130500000Y-94000000D02*
X130500000Y-93100000D01*
D40*
%TO.N,Net-(U2-REF)*%
X136475000Y-104375000D02*
X136000000Y-103900000D01*
X138375000Y-104375000D02*
X136475000Y-104375000D01*
%TO.N,Net-(U2-~{RESET})*%
X137025000Y-108375000D02*
X136195000Y-109205000D01*
X138375000Y-108375000D02*
X137025000Y-108375000D01*
X136195000Y-109205000D02*
X136195000Y-109900000D01*
%TO.N,Net-(U2-EECS)*%
X140800000Y-99950000D02*
X140800000Y-98865700D01*
X144400000Y-93660000D02*
X145190000Y-94450000D01*
X144400000Y-93600000D02*
X144400000Y-93660000D01*
X140800000Y-98865700D02*
X145190000Y-94475700D01*
%TO.N,Net-(U2-EECLK)*%
X141300000Y-98973700D02*
X144549000Y-95725000D01*
X146460000Y-92860000D02*
X146300000Y-92700000D01*
X141300000Y-99950000D02*
X141300000Y-98973700D01*
X146460000Y-94450000D02*
X146460000Y-92860000D01*
X146175000Y-95725000D02*
X146460000Y-95440000D01*
X144549000Y-95725000D02*
X146175000Y-95725000D01*
X146460000Y-95440000D02*
X146460000Y-94450000D01*
%TO.N,Net-(U2-EEDATA)*%
X147802000Y-96700000D02*
X147802000Y-94522500D01*
X147730000Y-93069300D02*
X146361000Y-91700000D01*
X144139000Y-96700000D02*
X147335000Y-96700000D01*
X147730000Y-94450000D02*
X147730000Y-93069300D01*
X147335000Y-96700000D02*
X147802000Y-96700000D01*
D41*
X147335000Y-96700000D02*
X147802000Y-96700000D01*
D40*
X146361000Y-91700000D02*
X146200000Y-91700000D01*
X141800000Y-99039300D02*
X144139000Y-96700000D01*
X141800000Y-99950000D02*
X141800000Y-99039300D01*
%TO.N,Net-(U3-DO)*%
X148998000Y-95576200D02*
X148998000Y-94452500D01*
D41*
X148998000Y-95576700D02*
X148998000Y-96700000D01*
D40*
X148998000Y-95576700D02*
X148998000Y-95576200D01*
X148998000Y-96700000D02*
X148998000Y-95576700D01*
D41*
X148998000Y-95576200D02*
X148998000Y-95576700D01*
%TD*%
M02*
