%TF.GenerationSoftware,KiCad,Pcbnew,8.0.5*%
%TF.CreationDate,2024-10-07T14:28:25-07:00*%
%TF.ProjectId,USB_SPII2CK,5553425f-5350-4494-9932-434b2e6b6963,rev?*%
%TF.SameCoordinates,Original*%
%TF.FileFunction,Legend,Top*%
%TF.FilePolarity,Positive*%
%FSLAX46Y46*%
G04 Gerber Fmt 4.6, Leading zero omitted, Abs format (unit mm)*
G04 Created by KiCad (PCBNEW 8.0.5) date 2024-10-07 14:28:25*
%MOMM*%
%LPD*%
G01*
G04 APERTURE LIST*
G04 Aperture macros list*
%AMRoundRect*
0 Rectangle with rounded corners*
0 $1 Rounding radius*
0 $2 $3 $4 $5 $6 $7 $8 $9 X,Y pos of 4 corners*
0 Add a 4 corners polygon primitive as box body*
4,1,4,$2,$3,$4,$5,$6,$7,$8,$9,$2,$3,0*
0 Add four circle primitives for the rounded corners*
1,1,$1+$1,$2,$3*
1,1,$1+$1,$4,$5*
1,1,$1+$1,$6,$7*
1,1,$1+$1,$8,$9*
0 Add four rect primitives between the rounded corners*
20,1,$1+$1,$2,$3,$4,$5,0*
20,1,$1+$1,$4,$5,$6,$7,0*
20,1,$1+$1,$6,$7,$8,$9,0*
20,1,$1+$1,$8,$9,$2,$3,0*%
%AMFreePoly0*
4,1,19,0.500000,-0.750000,0.000000,-0.750000,0.000000,-0.744911,-0.071157,-0.744911,-0.207708,-0.704816,-0.327430,-0.627875,-0.420627,-0.520320,-0.479746,-0.390866,-0.500000,-0.250000,-0.500000,0.250000,-0.479746,0.390866,-0.420627,0.520320,-0.327430,0.627875,-0.207708,0.704816,-0.071157,0.744911,0.000000,0.744911,0.000000,0.750000,0.500000,0.750000,0.500000,-0.750000,0.500000,-0.750000,
$1*%
%AMFreePoly1*
4,1,19,0.000000,0.744911,0.071157,0.744911,0.207708,0.704816,0.327430,0.627875,0.420627,0.520320,0.479746,0.390866,0.500000,0.250000,0.500000,-0.250000,0.479746,-0.390866,0.420627,-0.520320,0.327430,-0.627875,0.207708,-0.704816,0.071157,-0.744911,0.000000,-0.744911,0.000000,-0.750000,-0.500000,-0.750000,-0.500000,0.750000,0.000000,0.750000,0.000000,0.744911,0.000000,0.744911,
$1*%
G04 Aperture macros list end*
%ADD10C,0.560000*%
%ADD11C,0.376228*%
%ADD12C,0.150000*%
%ADD13C,0.120000*%
%ADD14FreePoly0,90.000000*%
%ADD15FreePoly1,90.000000*%
%ADD16RoundRect,0.100000X-0.575000X0.100000X-0.575000X-0.100000X0.575000X-0.100000X0.575000X0.100000X0*%
%ADD17O,1.600000X0.900000*%
%ADD18RoundRect,0.250000X-0.450000X0.550000X-0.450000X-0.550000X0.450000X-0.550000X0.450000X0.550000X0*%
%ADD19RoundRect,0.250000X-0.700000X0.700000X-0.700000X-0.700000X0.700000X-0.700000X0.700000X0.700000X0*%
%ADD20RoundRect,0.155000X-0.212500X-0.155000X0.212500X-0.155000X0.212500X0.155000X-0.212500X0.155000X0*%
%ADD21RoundRect,0.155000X0.155000X-0.212500X0.155000X0.212500X-0.155000X0.212500X-0.155000X-0.212500X0*%
%ADD22RoundRect,0.150000X-0.512500X-0.150000X0.512500X-0.150000X0.512500X0.150000X-0.512500X0.150000X0*%
%ADD23RoundRect,0.150000X0.150000X-0.825000X0.150000X0.825000X-0.150000X0.825000X-0.150000X-0.825000X0*%
%ADD24RoundRect,0.160000X0.160000X-0.197500X0.160000X0.197500X-0.160000X0.197500X-0.160000X-0.197500X0*%
%ADD25RoundRect,0.160000X0.197500X0.160000X-0.197500X0.160000X-0.197500X-0.160000X0.197500X-0.160000X0*%
%ADD26RoundRect,0.250000X-0.600000X-0.600000X0.600000X-0.600000X0.600000X0.600000X-0.600000X0.600000X0*%
%ADD27C,1.700000*%
%ADD28RoundRect,0.160000X-0.197500X-0.160000X0.197500X-0.160000X0.197500X0.160000X-0.197500X0.160000X0*%
%ADD29RoundRect,0.155000X0.212500X0.155000X-0.212500X0.155000X-0.212500X-0.155000X0.212500X-0.155000X0*%
%ADD30R,1.000000X1.000000*%
%ADD31O,1.000000X1.000000*%
%ADD32FreePoly0,0.000000*%
%ADD33FreePoly1,0.000000*%
%ADD34RoundRect,0.075000X-0.700000X-0.075000X0.700000X-0.075000X0.700000X0.075000X-0.700000X0.075000X0*%
%ADD35RoundRect,0.075000X-0.075000X-0.700000X0.075000X-0.700000X0.075000X0.700000X-0.075000X0.700000X0*%
%ADD36R,1.800000X2.100000*%
%ADD37RoundRect,0.155000X-0.155000X0.212500X-0.155000X-0.212500X0.155000X-0.212500X0.155000X0.212500X0*%
%ADD38C,3.000000*%
%ADD39RoundRect,0.160000X-0.160000X0.197500X-0.160000X-0.197500X0.160000X-0.197500X0.160000X0.197500X0*%
%ADD40RoundRect,0.237500X-0.300000X-0.237500X0.300000X-0.237500X0.300000X0.237500X-0.300000X0.237500X0*%
G04 APERTURE END LIST*
D10*
X166680000Y-92500000D02*
G75*
G02*
X166120000Y-92500000I-280000J0D01*
G01*
X166120000Y-92500000D02*
G75*
G02*
X166680000Y-92500000I280000J0D01*
G01*
D11*
X139988114Y-96500000D02*
G75*
G02*
X139611886Y-96500000I-188114J0D01*
G01*
X139611886Y-96500000D02*
G75*
G02*
X139988114Y-96500000I188114J0D01*
G01*
D12*
X131428572Y-84039819D02*
X131428572Y-84849342D01*
X131428572Y-84849342D02*
X131476191Y-84944580D01*
X131476191Y-84944580D02*
X131523810Y-84992200D01*
X131523810Y-84992200D02*
X131619048Y-85039819D01*
X131619048Y-85039819D02*
X131809524Y-85039819D01*
X131809524Y-85039819D02*
X131904762Y-84992200D01*
X131904762Y-84992200D02*
X131952381Y-84944580D01*
X131952381Y-84944580D02*
X132000000Y-84849342D01*
X132000000Y-84849342D02*
X132000000Y-84039819D01*
X132428572Y-84992200D02*
X132571429Y-85039819D01*
X132571429Y-85039819D02*
X132809524Y-85039819D01*
X132809524Y-85039819D02*
X132904762Y-84992200D01*
X132904762Y-84992200D02*
X132952381Y-84944580D01*
X132952381Y-84944580D02*
X133000000Y-84849342D01*
X133000000Y-84849342D02*
X133000000Y-84754104D01*
X133000000Y-84754104D02*
X132952381Y-84658866D01*
X132952381Y-84658866D02*
X132904762Y-84611247D01*
X132904762Y-84611247D02*
X132809524Y-84563628D01*
X132809524Y-84563628D02*
X132619048Y-84516009D01*
X132619048Y-84516009D02*
X132523810Y-84468390D01*
X132523810Y-84468390D02*
X132476191Y-84420771D01*
X132476191Y-84420771D02*
X132428572Y-84325533D01*
X132428572Y-84325533D02*
X132428572Y-84230295D01*
X132428572Y-84230295D02*
X132476191Y-84135057D01*
X132476191Y-84135057D02*
X132523810Y-84087438D01*
X132523810Y-84087438D02*
X132619048Y-84039819D01*
X132619048Y-84039819D02*
X132857143Y-84039819D01*
X132857143Y-84039819D02*
X133000000Y-84087438D01*
X133761905Y-84516009D02*
X133904762Y-84563628D01*
X133904762Y-84563628D02*
X133952381Y-84611247D01*
X133952381Y-84611247D02*
X134000000Y-84706485D01*
X134000000Y-84706485D02*
X134000000Y-84849342D01*
X134000000Y-84849342D02*
X133952381Y-84944580D01*
X133952381Y-84944580D02*
X133904762Y-84992200D01*
X133904762Y-84992200D02*
X133809524Y-85039819D01*
X133809524Y-85039819D02*
X133428572Y-85039819D01*
X133428572Y-85039819D02*
X133428572Y-84039819D01*
X133428572Y-84039819D02*
X133761905Y-84039819D01*
X133761905Y-84039819D02*
X133857143Y-84087438D01*
X133857143Y-84087438D02*
X133904762Y-84135057D01*
X133904762Y-84135057D02*
X133952381Y-84230295D01*
X133952381Y-84230295D02*
X133952381Y-84325533D01*
X133952381Y-84325533D02*
X133904762Y-84420771D01*
X133904762Y-84420771D02*
X133857143Y-84468390D01*
X133857143Y-84468390D02*
X133761905Y-84516009D01*
X133761905Y-84516009D02*
X133428572Y-84516009D01*
X134190477Y-85135057D02*
X134952381Y-85135057D01*
X135142858Y-84992200D02*
X135285715Y-85039819D01*
X135285715Y-85039819D02*
X135523810Y-85039819D01*
X135523810Y-85039819D02*
X135619048Y-84992200D01*
X135619048Y-84992200D02*
X135666667Y-84944580D01*
X135666667Y-84944580D02*
X135714286Y-84849342D01*
X135714286Y-84849342D02*
X135714286Y-84754104D01*
X135714286Y-84754104D02*
X135666667Y-84658866D01*
X135666667Y-84658866D02*
X135619048Y-84611247D01*
X135619048Y-84611247D02*
X135523810Y-84563628D01*
X135523810Y-84563628D02*
X135333334Y-84516009D01*
X135333334Y-84516009D02*
X135238096Y-84468390D01*
X135238096Y-84468390D02*
X135190477Y-84420771D01*
X135190477Y-84420771D02*
X135142858Y-84325533D01*
X135142858Y-84325533D02*
X135142858Y-84230295D01*
X135142858Y-84230295D02*
X135190477Y-84135057D01*
X135190477Y-84135057D02*
X135238096Y-84087438D01*
X135238096Y-84087438D02*
X135333334Y-84039819D01*
X135333334Y-84039819D02*
X135571429Y-84039819D01*
X135571429Y-84039819D02*
X135714286Y-84087438D01*
X136142858Y-85039819D02*
X136142858Y-84039819D01*
X136142858Y-84039819D02*
X136523810Y-84039819D01*
X136523810Y-84039819D02*
X136619048Y-84087438D01*
X136619048Y-84087438D02*
X136666667Y-84135057D01*
X136666667Y-84135057D02*
X136714286Y-84230295D01*
X136714286Y-84230295D02*
X136714286Y-84373152D01*
X136714286Y-84373152D02*
X136666667Y-84468390D01*
X136666667Y-84468390D02*
X136619048Y-84516009D01*
X136619048Y-84516009D02*
X136523810Y-84563628D01*
X136523810Y-84563628D02*
X136142858Y-84563628D01*
X137142858Y-85039819D02*
X137142858Y-84039819D01*
X137619048Y-85039819D02*
X137619048Y-84039819D01*
X138047619Y-84135057D02*
X138095238Y-84087438D01*
X138095238Y-84087438D02*
X138190476Y-84039819D01*
X138190476Y-84039819D02*
X138428571Y-84039819D01*
X138428571Y-84039819D02*
X138523809Y-84087438D01*
X138523809Y-84087438D02*
X138571428Y-84135057D01*
X138571428Y-84135057D02*
X138619047Y-84230295D01*
X138619047Y-84230295D02*
X138619047Y-84325533D01*
X138619047Y-84325533D02*
X138571428Y-84468390D01*
X138571428Y-84468390D02*
X138000000Y-85039819D01*
X138000000Y-85039819D02*
X138619047Y-85039819D01*
X139619047Y-84944580D02*
X139571428Y-84992200D01*
X139571428Y-84992200D02*
X139428571Y-85039819D01*
X139428571Y-85039819D02*
X139333333Y-85039819D01*
X139333333Y-85039819D02*
X139190476Y-84992200D01*
X139190476Y-84992200D02*
X139095238Y-84896961D01*
X139095238Y-84896961D02*
X139047619Y-84801723D01*
X139047619Y-84801723D02*
X139000000Y-84611247D01*
X139000000Y-84611247D02*
X139000000Y-84468390D01*
X139000000Y-84468390D02*
X139047619Y-84277914D01*
X139047619Y-84277914D02*
X139095238Y-84182676D01*
X139095238Y-84182676D02*
X139190476Y-84087438D01*
X139190476Y-84087438D02*
X139333333Y-84039819D01*
X139333333Y-84039819D02*
X139428571Y-84039819D01*
X139428571Y-84039819D02*
X139571428Y-84087438D01*
X139571428Y-84087438D02*
X139619047Y-84135057D01*
X140047619Y-85039819D02*
X140047619Y-84039819D01*
X140619047Y-85039819D02*
X140190476Y-84468390D01*
X140619047Y-84039819D02*
X140047619Y-84611247D01*
X134476191Y-85649763D02*
X134809524Y-86649763D01*
X134809524Y-86649763D02*
X135142857Y-85649763D01*
X136000000Y-86649763D02*
X135428572Y-86649763D01*
X135714286Y-86649763D02*
X135714286Y-85649763D01*
X135714286Y-85649763D02*
X135619048Y-85792620D01*
X135619048Y-85792620D02*
X135523810Y-85887858D01*
X135523810Y-85887858D02*
X135428572Y-85935477D01*
X136428572Y-86554524D02*
X136476191Y-86602144D01*
X136476191Y-86602144D02*
X136428572Y-86649763D01*
X136428572Y-86649763D02*
X136380953Y-86602144D01*
X136380953Y-86602144D02*
X136428572Y-86554524D01*
X136428572Y-86554524D02*
X136428572Y-86649763D01*
X137428571Y-86649763D02*
X136857143Y-86649763D01*
X137142857Y-86649763D02*
X137142857Y-85649763D01*
X137142857Y-85649763D02*
X137047619Y-85792620D01*
X137047619Y-85792620D02*
X136952381Y-85887858D01*
X136952381Y-85887858D02*
X136857143Y-85935477D01*
X151054819Y-112783333D02*
X151769104Y-112783333D01*
X151769104Y-112783333D02*
X151911961Y-112830952D01*
X151911961Y-112830952D02*
X152007200Y-112926190D01*
X152007200Y-112926190D02*
X152054819Y-113069047D01*
X152054819Y-113069047D02*
X152054819Y-113164285D01*
X151054819Y-112402380D02*
X151054819Y-111783333D01*
X151054819Y-111783333D02*
X151435771Y-112116666D01*
X151435771Y-112116666D02*
X151435771Y-111973809D01*
X151435771Y-111973809D02*
X151483390Y-111878571D01*
X151483390Y-111878571D02*
X151531009Y-111830952D01*
X151531009Y-111830952D02*
X151626247Y-111783333D01*
X151626247Y-111783333D02*
X151864342Y-111783333D01*
X151864342Y-111783333D02*
X151959580Y-111830952D01*
X151959580Y-111830952D02*
X152007200Y-111878571D01*
X152007200Y-111878571D02*
X152054819Y-111973809D01*
X152054819Y-111973809D02*
X152054819Y-112259523D01*
X152054819Y-112259523D02*
X152007200Y-112354761D01*
X152007200Y-112354761D02*
X151959580Y-112402380D01*
X125254819Y-103633333D02*
X125969104Y-103633333D01*
X125969104Y-103633333D02*
X126111961Y-103680952D01*
X126111961Y-103680952D02*
X126207200Y-103776190D01*
X126207200Y-103776190D02*
X126254819Y-103919047D01*
X126254819Y-103919047D02*
X126254819Y-104014285D01*
X125588152Y-102728571D02*
X126254819Y-102728571D01*
X125207200Y-102966666D02*
X125921485Y-103204761D01*
X125921485Y-103204761D02*
X125921485Y-102585714D01*
X144957142Y-86099580D02*
X144909523Y-86147200D01*
X144909523Y-86147200D02*
X144766666Y-86194819D01*
X144766666Y-86194819D02*
X144671428Y-86194819D01*
X144671428Y-86194819D02*
X144528571Y-86147200D01*
X144528571Y-86147200D02*
X144433333Y-86051961D01*
X144433333Y-86051961D02*
X144385714Y-85956723D01*
X144385714Y-85956723D02*
X144338095Y-85766247D01*
X144338095Y-85766247D02*
X144338095Y-85623390D01*
X144338095Y-85623390D02*
X144385714Y-85432914D01*
X144385714Y-85432914D02*
X144433333Y-85337676D01*
X144433333Y-85337676D02*
X144528571Y-85242438D01*
X144528571Y-85242438D02*
X144671428Y-85194819D01*
X144671428Y-85194819D02*
X144766666Y-85194819D01*
X144766666Y-85194819D02*
X144909523Y-85242438D01*
X144909523Y-85242438D02*
X144957142Y-85290057D01*
X145909523Y-86194819D02*
X145338095Y-86194819D01*
X145623809Y-86194819D02*
X145623809Y-85194819D01*
X145623809Y-85194819D02*
X145528571Y-85337676D01*
X145528571Y-85337676D02*
X145433333Y-85432914D01*
X145433333Y-85432914D02*
X145338095Y-85480533D01*
X146766666Y-85194819D02*
X146576190Y-85194819D01*
X146576190Y-85194819D02*
X146480952Y-85242438D01*
X146480952Y-85242438D02*
X146433333Y-85290057D01*
X146433333Y-85290057D02*
X146338095Y-85432914D01*
X146338095Y-85432914D02*
X146290476Y-85623390D01*
X146290476Y-85623390D02*
X146290476Y-86004342D01*
X146290476Y-86004342D02*
X146338095Y-86099580D01*
X146338095Y-86099580D02*
X146385714Y-86147200D01*
X146385714Y-86147200D02*
X146480952Y-86194819D01*
X146480952Y-86194819D02*
X146671428Y-86194819D01*
X146671428Y-86194819D02*
X146766666Y-86147200D01*
X146766666Y-86147200D02*
X146814285Y-86099580D01*
X146814285Y-86099580D02*
X146861904Y-86004342D01*
X146861904Y-86004342D02*
X146861904Y-85766247D01*
X146861904Y-85766247D02*
X146814285Y-85671009D01*
X146814285Y-85671009D02*
X146766666Y-85623390D01*
X146766666Y-85623390D02*
X146671428Y-85575771D01*
X146671428Y-85575771D02*
X146480952Y-85575771D01*
X146480952Y-85575771D02*
X146385714Y-85623390D01*
X146385714Y-85623390D02*
X146338095Y-85671009D01*
X146338095Y-85671009D02*
X146290476Y-85766247D01*
X153033333Y-107559580D02*
X152985714Y-107607200D01*
X152985714Y-107607200D02*
X152842857Y-107654819D01*
X152842857Y-107654819D02*
X152747619Y-107654819D01*
X152747619Y-107654819D02*
X152604762Y-107607200D01*
X152604762Y-107607200D02*
X152509524Y-107511961D01*
X152509524Y-107511961D02*
X152461905Y-107416723D01*
X152461905Y-107416723D02*
X152414286Y-107226247D01*
X152414286Y-107226247D02*
X152414286Y-107083390D01*
X152414286Y-107083390D02*
X152461905Y-106892914D01*
X152461905Y-106892914D02*
X152509524Y-106797676D01*
X152509524Y-106797676D02*
X152604762Y-106702438D01*
X152604762Y-106702438D02*
X152747619Y-106654819D01*
X152747619Y-106654819D02*
X152842857Y-106654819D01*
X152842857Y-106654819D02*
X152985714Y-106702438D01*
X152985714Y-106702438D02*
X153033333Y-106750057D01*
X153414286Y-106750057D02*
X153461905Y-106702438D01*
X153461905Y-106702438D02*
X153557143Y-106654819D01*
X153557143Y-106654819D02*
X153795238Y-106654819D01*
X153795238Y-106654819D02*
X153890476Y-106702438D01*
X153890476Y-106702438D02*
X153938095Y-106750057D01*
X153938095Y-106750057D02*
X153985714Y-106845295D01*
X153985714Y-106845295D02*
X153985714Y-106940533D01*
X153985714Y-106940533D02*
X153938095Y-107083390D01*
X153938095Y-107083390D02*
X153366667Y-107654819D01*
X153366667Y-107654819D02*
X153985714Y-107654819D01*
X130175595Y-88504819D02*
X130175595Y-89314342D01*
X130175595Y-89314342D02*
X130223214Y-89409580D01*
X130223214Y-89409580D02*
X130270833Y-89457200D01*
X130270833Y-89457200D02*
X130366071Y-89504819D01*
X130366071Y-89504819D02*
X130556547Y-89504819D01*
X130556547Y-89504819D02*
X130651785Y-89457200D01*
X130651785Y-89457200D02*
X130699404Y-89409580D01*
X130699404Y-89409580D02*
X130747023Y-89314342D01*
X130747023Y-89314342D02*
X130747023Y-88504819D01*
X131747023Y-89504819D02*
X131175595Y-89504819D01*
X131461309Y-89504819D02*
X131461309Y-88504819D01*
X131461309Y-88504819D02*
X131366071Y-88647676D01*
X131366071Y-88647676D02*
X131270833Y-88742914D01*
X131270833Y-88742914D02*
X131175595Y-88790533D01*
X143149819Y-92736904D02*
X143959342Y-92736904D01*
X143959342Y-92736904D02*
X144054580Y-92689285D01*
X144054580Y-92689285D02*
X144102200Y-92641666D01*
X144102200Y-92641666D02*
X144149819Y-92546428D01*
X144149819Y-92546428D02*
X144149819Y-92355952D01*
X144149819Y-92355952D02*
X144102200Y-92260714D01*
X144102200Y-92260714D02*
X144054580Y-92213095D01*
X144054580Y-92213095D02*
X143959342Y-92165476D01*
X143959342Y-92165476D02*
X143149819Y-92165476D01*
X143149819Y-91784523D02*
X143149819Y-91165476D01*
X143149819Y-91165476D02*
X143530771Y-91498809D01*
X143530771Y-91498809D02*
X143530771Y-91355952D01*
X143530771Y-91355952D02*
X143578390Y-91260714D01*
X143578390Y-91260714D02*
X143626009Y-91213095D01*
X143626009Y-91213095D02*
X143721247Y-91165476D01*
X143721247Y-91165476D02*
X143959342Y-91165476D01*
X143959342Y-91165476D02*
X144054580Y-91213095D01*
X144054580Y-91213095D02*
X144102200Y-91260714D01*
X144102200Y-91260714D02*
X144149819Y-91355952D01*
X144149819Y-91355952D02*
X144149819Y-91641666D01*
X144149819Y-91641666D02*
X144102200Y-91736904D01*
X144102200Y-91736904D02*
X144054580Y-91784523D01*
X158754819Y-112633333D02*
X159469104Y-112633333D01*
X159469104Y-112633333D02*
X159611961Y-112680952D01*
X159611961Y-112680952D02*
X159707200Y-112776190D01*
X159707200Y-112776190D02*
X159754819Y-112919047D01*
X159754819Y-112919047D02*
X159754819Y-113014285D01*
X158850057Y-112204761D02*
X158802438Y-112157142D01*
X158802438Y-112157142D02*
X158754819Y-112061904D01*
X158754819Y-112061904D02*
X158754819Y-111823809D01*
X158754819Y-111823809D02*
X158802438Y-111728571D01*
X158802438Y-111728571D02*
X158850057Y-111680952D01*
X158850057Y-111680952D02*
X158945295Y-111633333D01*
X158945295Y-111633333D02*
X159040533Y-111633333D01*
X159040533Y-111633333D02*
X159183390Y-111680952D01*
X159183390Y-111680952D02*
X159754819Y-112252380D01*
X159754819Y-112252380D02*
X159754819Y-111633333D01*
X151733333Y-110654819D02*
X151400000Y-110178628D01*
X151161905Y-110654819D02*
X151161905Y-109654819D01*
X151161905Y-109654819D02*
X151542857Y-109654819D01*
X151542857Y-109654819D02*
X151638095Y-109702438D01*
X151638095Y-109702438D02*
X151685714Y-109750057D01*
X151685714Y-109750057D02*
X151733333Y-109845295D01*
X151733333Y-109845295D02*
X151733333Y-109988152D01*
X151733333Y-109988152D02*
X151685714Y-110083390D01*
X151685714Y-110083390D02*
X151638095Y-110131009D01*
X151638095Y-110131009D02*
X151542857Y-110178628D01*
X151542857Y-110178628D02*
X151161905Y-110178628D01*
X152590476Y-109988152D02*
X152590476Y-110654819D01*
X152352381Y-109607200D02*
X152114286Y-110321485D01*
X152114286Y-110321485D02*
X152733333Y-110321485D01*
X147757142Y-98324819D02*
X147423809Y-97848628D01*
X147185714Y-98324819D02*
X147185714Y-97324819D01*
X147185714Y-97324819D02*
X147566666Y-97324819D01*
X147566666Y-97324819D02*
X147661904Y-97372438D01*
X147661904Y-97372438D02*
X147709523Y-97420057D01*
X147709523Y-97420057D02*
X147757142Y-97515295D01*
X147757142Y-97515295D02*
X147757142Y-97658152D01*
X147757142Y-97658152D02*
X147709523Y-97753390D01*
X147709523Y-97753390D02*
X147661904Y-97801009D01*
X147661904Y-97801009D02*
X147566666Y-97848628D01*
X147566666Y-97848628D02*
X147185714Y-97848628D01*
X148709523Y-98324819D02*
X148138095Y-98324819D01*
X148423809Y-98324819D02*
X148423809Y-97324819D01*
X148423809Y-97324819D02*
X148328571Y-97467676D01*
X148328571Y-97467676D02*
X148233333Y-97562914D01*
X148233333Y-97562914D02*
X148138095Y-97610533D01*
X149661904Y-98324819D02*
X149090476Y-98324819D01*
X149376190Y-98324819D02*
X149376190Y-97324819D01*
X149376190Y-97324819D02*
X149280952Y-97467676D01*
X149280952Y-97467676D02*
X149185714Y-97562914D01*
X149185714Y-97562914D02*
X149090476Y-97610533D01*
X160266666Y-84754819D02*
X160266666Y-85469104D01*
X160266666Y-85469104D02*
X160219047Y-85611961D01*
X160219047Y-85611961D02*
X160123809Y-85707200D01*
X160123809Y-85707200D02*
X159980952Y-85754819D01*
X159980952Y-85754819D02*
X159885714Y-85754819D01*
X161266666Y-85754819D02*
X160695238Y-85754819D01*
X160980952Y-85754819D02*
X160980952Y-84754819D01*
X160980952Y-84754819D02*
X160885714Y-84897676D01*
X160885714Y-84897676D02*
X160790476Y-84992914D01*
X160790476Y-84992914D02*
X160695238Y-85040533D01*
X152159642Y-85484819D02*
X151826309Y-85008628D01*
X151588214Y-85484819D02*
X151588214Y-84484819D01*
X151588214Y-84484819D02*
X151969166Y-84484819D01*
X151969166Y-84484819D02*
X152064404Y-84532438D01*
X152064404Y-84532438D02*
X152112023Y-84580057D01*
X152112023Y-84580057D02*
X152159642Y-84675295D01*
X152159642Y-84675295D02*
X152159642Y-84818152D01*
X152159642Y-84818152D02*
X152112023Y-84913390D01*
X152112023Y-84913390D02*
X152064404Y-84961009D01*
X152064404Y-84961009D02*
X151969166Y-85008628D01*
X151969166Y-85008628D02*
X151588214Y-85008628D01*
X153112023Y-85484819D02*
X152540595Y-85484819D01*
X152826309Y-85484819D02*
X152826309Y-84484819D01*
X152826309Y-84484819D02*
X152731071Y-84627676D01*
X152731071Y-84627676D02*
X152635833Y-84722914D01*
X152635833Y-84722914D02*
X152540595Y-84770533D01*
X153731071Y-84484819D02*
X153826309Y-84484819D01*
X153826309Y-84484819D02*
X153921547Y-84532438D01*
X153921547Y-84532438D02*
X153969166Y-84580057D01*
X153969166Y-84580057D02*
X154016785Y-84675295D01*
X154016785Y-84675295D02*
X154064404Y-84865771D01*
X154064404Y-84865771D02*
X154064404Y-85103866D01*
X154064404Y-85103866D02*
X154016785Y-85294342D01*
X154016785Y-85294342D02*
X153969166Y-85389580D01*
X153969166Y-85389580D02*
X153921547Y-85437200D01*
X153921547Y-85437200D02*
X153826309Y-85484819D01*
X153826309Y-85484819D02*
X153731071Y-85484819D01*
X153731071Y-85484819D02*
X153635833Y-85437200D01*
X153635833Y-85437200D02*
X153588214Y-85389580D01*
X153588214Y-85389580D02*
X153540595Y-85294342D01*
X153540595Y-85294342D02*
X153492976Y-85103866D01*
X153492976Y-85103866D02*
X153492976Y-84865771D01*
X153492976Y-84865771D02*
X153540595Y-84675295D01*
X153540595Y-84675295D02*
X153588214Y-84580057D01*
X153588214Y-84580057D02*
X153635833Y-84532438D01*
X153635833Y-84532438D02*
X153731071Y-84484819D01*
X139965833Y-113259580D02*
X139918214Y-113307200D01*
X139918214Y-113307200D02*
X139775357Y-113354819D01*
X139775357Y-113354819D02*
X139680119Y-113354819D01*
X139680119Y-113354819D02*
X139537262Y-113307200D01*
X139537262Y-113307200D02*
X139442024Y-113211961D01*
X139442024Y-113211961D02*
X139394405Y-113116723D01*
X139394405Y-113116723D02*
X139346786Y-112926247D01*
X139346786Y-112926247D02*
X139346786Y-112783390D01*
X139346786Y-112783390D02*
X139394405Y-112592914D01*
X139394405Y-112592914D02*
X139442024Y-112497676D01*
X139442024Y-112497676D02*
X139537262Y-112402438D01*
X139537262Y-112402438D02*
X139680119Y-112354819D01*
X139680119Y-112354819D02*
X139775357Y-112354819D01*
X139775357Y-112354819D02*
X139918214Y-112402438D01*
X139918214Y-112402438D02*
X139965833Y-112450057D01*
X140822976Y-112688152D02*
X140822976Y-113354819D01*
X140584881Y-112307200D02*
X140346786Y-113021485D01*
X140346786Y-113021485D02*
X140965833Y-113021485D01*
X156554819Y-109566666D02*
X156078628Y-109899999D01*
X156554819Y-110138094D02*
X155554819Y-110138094D01*
X155554819Y-110138094D02*
X155554819Y-109757142D01*
X155554819Y-109757142D02*
X155602438Y-109661904D01*
X155602438Y-109661904D02*
X155650057Y-109614285D01*
X155650057Y-109614285D02*
X155745295Y-109566666D01*
X155745295Y-109566666D02*
X155888152Y-109566666D01*
X155888152Y-109566666D02*
X155983390Y-109614285D01*
X155983390Y-109614285D02*
X156031009Y-109661904D01*
X156031009Y-109661904D02*
X156078628Y-109757142D01*
X156078628Y-109757142D02*
X156078628Y-110138094D01*
X155554819Y-109233332D02*
X155554819Y-108614285D01*
X155554819Y-108614285D02*
X155935771Y-108947618D01*
X155935771Y-108947618D02*
X155935771Y-108804761D01*
X155935771Y-108804761D02*
X155983390Y-108709523D01*
X155983390Y-108709523D02*
X156031009Y-108661904D01*
X156031009Y-108661904D02*
X156126247Y-108614285D01*
X156126247Y-108614285D02*
X156364342Y-108614285D01*
X156364342Y-108614285D02*
X156459580Y-108661904D01*
X156459580Y-108661904D02*
X156507200Y-108709523D01*
X156507200Y-108709523D02*
X156554819Y-108804761D01*
X156554819Y-108804761D02*
X156554819Y-109090475D01*
X156554819Y-109090475D02*
X156507200Y-109185713D01*
X156507200Y-109185713D02*
X156459580Y-109233332D01*
X154433333Y-105259580D02*
X154385714Y-105307200D01*
X154385714Y-105307200D02*
X154242857Y-105354819D01*
X154242857Y-105354819D02*
X154147619Y-105354819D01*
X154147619Y-105354819D02*
X154004762Y-105307200D01*
X154004762Y-105307200D02*
X153909524Y-105211961D01*
X153909524Y-105211961D02*
X153861905Y-105116723D01*
X153861905Y-105116723D02*
X153814286Y-104926247D01*
X153814286Y-104926247D02*
X153814286Y-104783390D01*
X153814286Y-104783390D02*
X153861905Y-104592914D01*
X153861905Y-104592914D02*
X153909524Y-104497676D01*
X153909524Y-104497676D02*
X154004762Y-104402438D01*
X154004762Y-104402438D02*
X154147619Y-104354819D01*
X154147619Y-104354819D02*
X154242857Y-104354819D01*
X154242857Y-104354819D02*
X154385714Y-104402438D01*
X154385714Y-104402438D02*
X154433333Y-104450057D01*
X155290476Y-104354819D02*
X155100000Y-104354819D01*
X155100000Y-104354819D02*
X155004762Y-104402438D01*
X155004762Y-104402438D02*
X154957143Y-104450057D01*
X154957143Y-104450057D02*
X154861905Y-104592914D01*
X154861905Y-104592914D02*
X154814286Y-104783390D01*
X154814286Y-104783390D02*
X154814286Y-105164342D01*
X154814286Y-105164342D02*
X154861905Y-105259580D01*
X154861905Y-105259580D02*
X154909524Y-105307200D01*
X154909524Y-105307200D02*
X155004762Y-105354819D01*
X155004762Y-105354819D02*
X155195238Y-105354819D01*
X155195238Y-105354819D02*
X155290476Y-105307200D01*
X155290476Y-105307200D02*
X155338095Y-105259580D01*
X155338095Y-105259580D02*
X155385714Y-105164342D01*
X155385714Y-105164342D02*
X155385714Y-104926247D01*
X155385714Y-104926247D02*
X155338095Y-104831009D01*
X155338095Y-104831009D02*
X155290476Y-104783390D01*
X155290476Y-104783390D02*
X155195238Y-104735771D01*
X155195238Y-104735771D02*
X155004762Y-104735771D01*
X155004762Y-104735771D02*
X154909524Y-104783390D01*
X154909524Y-104783390D02*
X154861905Y-104831009D01*
X154861905Y-104831009D02*
X154814286Y-104926247D01*
X129433333Y-95654819D02*
X129100000Y-95178628D01*
X128861905Y-95654819D02*
X128861905Y-94654819D01*
X128861905Y-94654819D02*
X129242857Y-94654819D01*
X129242857Y-94654819D02*
X129338095Y-94702438D01*
X129338095Y-94702438D02*
X129385714Y-94750057D01*
X129385714Y-94750057D02*
X129433333Y-94845295D01*
X129433333Y-94845295D02*
X129433333Y-94988152D01*
X129433333Y-94988152D02*
X129385714Y-95083390D01*
X129385714Y-95083390D02*
X129338095Y-95131009D01*
X129338095Y-95131009D02*
X129242857Y-95178628D01*
X129242857Y-95178628D02*
X128861905Y-95178628D01*
X129814286Y-94750057D02*
X129861905Y-94702438D01*
X129861905Y-94702438D02*
X129957143Y-94654819D01*
X129957143Y-94654819D02*
X130195238Y-94654819D01*
X130195238Y-94654819D02*
X130290476Y-94702438D01*
X130290476Y-94702438D02*
X130338095Y-94750057D01*
X130338095Y-94750057D02*
X130385714Y-94845295D01*
X130385714Y-94845295D02*
X130385714Y-94940533D01*
X130385714Y-94940533D02*
X130338095Y-95083390D01*
X130338095Y-95083390D02*
X129766667Y-95654819D01*
X129766667Y-95654819D02*
X130385714Y-95654819D01*
X169266666Y-89354819D02*
X169266666Y-90069104D01*
X169266666Y-90069104D02*
X169219047Y-90211961D01*
X169219047Y-90211961D02*
X169123809Y-90307200D01*
X169123809Y-90307200D02*
X168980952Y-90354819D01*
X168980952Y-90354819D02*
X168885714Y-90354819D01*
X170171428Y-89354819D02*
X169980952Y-89354819D01*
X169980952Y-89354819D02*
X169885714Y-89402438D01*
X169885714Y-89402438D02*
X169838095Y-89450057D01*
X169838095Y-89450057D02*
X169742857Y-89592914D01*
X169742857Y-89592914D02*
X169695238Y-89783390D01*
X169695238Y-89783390D02*
X169695238Y-90164342D01*
X169695238Y-90164342D02*
X169742857Y-90259580D01*
X169742857Y-90259580D02*
X169790476Y-90307200D01*
X169790476Y-90307200D02*
X169885714Y-90354819D01*
X169885714Y-90354819D02*
X170076190Y-90354819D01*
X170076190Y-90354819D02*
X170171428Y-90307200D01*
X170171428Y-90307200D02*
X170219047Y-90259580D01*
X170219047Y-90259580D02*
X170266666Y-90164342D01*
X170266666Y-90164342D02*
X170266666Y-89926247D01*
X170266666Y-89926247D02*
X170219047Y-89831009D01*
X170219047Y-89831009D02*
X170171428Y-89783390D01*
X170171428Y-89783390D02*
X170076190Y-89735771D01*
X170076190Y-89735771D02*
X169885714Y-89735771D01*
X169885714Y-89735771D02*
X169790476Y-89783390D01*
X169790476Y-89783390D02*
X169742857Y-89831009D01*
X169742857Y-89831009D02*
X169695238Y-89926247D01*
X135333333Y-111754819D02*
X135000000Y-111278628D01*
X134761905Y-111754819D02*
X134761905Y-110754819D01*
X134761905Y-110754819D02*
X135142857Y-110754819D01*
X135142857Y-110754819D02*
X135238095Y-110802438D01*
X135238095Y-110802438D02*
X135285714Y-110850057D01*
X135285714Y-110850057D02*
X135333333Y-110945295D01*
X135333333Y-110945295D02*
X135333333Y-111088152D01*
X135333333Y-111088152D02*
X135285714Y-111183390D01*
X135285714Y-111183390D02*
X135238095Y-111231009D01*
X135238095Y-111231009D02*
X135142857Y-111278628D01*
X135142857Y-111278628D02*
X134761905Y-111278628D01*
X136190476Y-110754819D02*
X136000000Y-110754819D01*
X136000000Y-110754819D02*
X135904762Y-110802438D01*
X135904762Y-110802438D02*
X135857143Y-110850057D01*
X135857143Y-110850057D02*
X135761905Y-110992914D01*
X135761905Y-110992914D02*
X135714286Y-111183390D01*
X135714286Y-111183390D02*
X135714286Y-111564342D01*
X135714286Y-111564342D02*
X135761905Y-111659580D01*
X135761905Y-111659580D02*
X135809524Y-111707200D01*
X135809524Y-111707200D02*
X135904762Y-111754819D01*
X135904762Y-111754819D02*
X136095238Y-111754819D01*
X136095238Y-111754819D02*
X136190476Y-111707200D01*
X136190476Y-111707200D02*
X136238095Y-111659580D01*
X136238095Y-111659580D02*
X136285714Y-111564342D01*
X136285714Y-111564342D02*
X136285714Y-111326247D01*
X136285714Y-111326247D02*
X136238095Y-111231009D01*
X136238095Y-111231009D02*
X136190476Y-111183390D01*
X136190476Y-111183390D02*
X136095238Y-111135771D01*
X136095238Y-111135771D02*
X135904762Y-111135771D01*
X135904762Y-111135771D02*
X135809524Y-111183390D01*
X135809524Y-111183390D02*
X135761905Y-111231009D01*
X135761905Y-111231009D02*
X135714286Y-111326247D01*
X152916666Y-98854819D02*
X152916666Y-99569104D01*
X152916666Y-99569104D02*
X152869047Y-99711961D01*
X152869047Y-99711961D02*
X152773809Y-99807200D01*
X152773809Y-99807200D02*
X152630952Y-99854819D01*
X152630952Y-99854819D02*
X152535714Y-99854819D01*
X153869047Y-98854819D02*
X153392857Y-98854819D01*
X153392857Y-98854819D02*
X153345238Y-99331009D01*
X153345238Y-99331009D02*
X153392857Y-99283390D01*
X153392857Y-99283390D02*
X153488095Y-99235771D01*
X153488095Y-99235771D02*
X153726190Y-99235771D01*
X153726190Y-99235771D02*
X153821428Y-99283390D01*
X153821428Y-99283390D02*
X153869047Y-99331009D01*
X153869047Y-99331009D02*
X153916666Y-99426247D01*
X153916666Y-99426247D02*
X153916666Y-99664342D01*
X153916666Y-99664342D02*
X153869047Y-99759580D01*
X153869047Y-99759580D02*
X153821428Y-99807200D01*
X153821428Y-99807200D02*
X153726190Y-99854819D01*
X153726190Y-99854819D02*
X153488095Y-99854819D01*
X153488095Y-99854819D02*
X153392857Y-99807200D01*
X153392857Y-99807200D02*
X153345238Y-99759580D01*
X139433333Y-87254819D02*
X139100000Y-86778628D01*
X138861905Y-87254819D02*
X138861905Y-86254819D01*
X138861905Y-86254819D02*
X139242857Y-86254819D01*
X139242857Y-86254819D02*
X139338095Y-86302438D01*
X139338095Y-86302438D02*
X139385714Y-86350057D01*
X139385714Y-86350057D02*
X139433333Y-86445295D01*
X139433333Y-86445295D02*
X139433333Y-86588152D01*
X139433333Y-86588152D02*
X139385714Y-86683390D01*
X139385714Y-86683390D02*
X139338095Y-86731009D01*
X139338095Y-86731009D02*
X139242857Y-86778628D01*
X139242857Y-86778628D02*
X138861905Y-86778628D01*
X140385714Y-87254819D02*
X139814286Y-87254819D01*
X140100000Y-87254819D02*
X140100000Y-86254819D01*
X140100000Y-86254819D02*
X140004762Y-86397676D01*
X140004762Y-86397676D02*
X139909524Y-86492914D01*
X139909524Y-86492914D02*
X139814286Y-86540533D01*
X137138095Y-99554819D02*
X137138095Y-100364342D01*
X137138095Y-100364342D02*
X137185714Y-100459580D01*
X137185714Y-100459580D02*
X137233333Y-100507200D01*
X137233333Y-100507200D02*
X137328571Y-100554819D01*
X137328571Y-100554819D02*
X137519047Y-100554819D01*
X137519047Y-100554819D02*
X137614285Y-100507200D01*
X137614285Y-100507200D02*
X137661904Y-100459580D01*
X137661904Y-100459580D02*
X137709523Y-100364342D01*
X137709523Y-100364342D02*
X137709523Y-99554819D01*
X138138095Y-99650057D02*
X138185714Y-99602438D01*
X138185714Y-99602438D02*
X138280952Y-99554819D01*
X138280952Y-99554819D02*
X138519047Y-99554819D01*
X138519047Y-99554819D02*
X138614285Y-99602438D01*
X138614285Y-99602438D02*
X138661904Y-99650057D01*
X138661904Y-99650057D02*
X138709523Y-99745295D01*
X138709523Y-99745295D02*
X138709523Y-99840533D01*
X138709523Y-99840533D02*
X138661904Y-99983390D01*
X138661904Y-99983390D02*
X138090476Y-100554819D01*
X138090476Y-100554819D02*
X138709523Y-100554819D01*
X145333333Y-96859580D02*
X145285714Y-96907200D01*
X145285714Y-96907200D02*
X145142857Y-96954819D01*
X145142857Y-96954819D02*
X145047619Y-96954819D01*
X145047619Y-96954819D02*
X144904762Y-96907200D01*
X144904762Y-96907200D02*
X144809524Y-96811961D01*
X144809524Y-96811961D02*
X144761905Y-96716723D01*
X144761905Y-96716723D02*
X144714286Y-96526247D01*
X144714286Y-96526247D02*
X144714286Y-96383390D01*
X144714286Y-96383390D02*
X144761905Y-96192914D01*
X144761905Y-96192914D02*
X144809524Y-96097676D01*
X144809524Y-96097676D02*
X144904762Y-96002438D01*
X144904762Y-96002438D02*
X145047619Y-95954819D01*
X145047619Y-95954819D02*
X145142857Y-95954819D01*
X145142857Y-95954819D02*
X145285714Y-96002438D01*
X145285714Y-96002438D02*
X145333333Y-96050057D01*
X145666667Y-95954819D02*
X146333333Y-95954819D01*
X146333333Y-95954819D02*
X145904762Y-96954819D01*
X140823809Y-96478628D02*
X140823809Y-96954819D01*
X140490476Y-95954819D02*
X140823809Y-96478628D01*
X140823809Y-96478628D02*
X141157142Y-95954819D01*
X142014285Y-96954819D02*
X141442857Y-96954819D01*
X141728571Y-96954819D02*
X141728571Y-95954819D01*
X141728571Y-95954819D02*
X141633333Y-96097676D01*
X141633333Y-96097676D02*
X141538095Y-96192914D01*
X141538095Y-96192914D02*
X141442857Y-96240533D01*
X134889642Y-109219580D02*
X134842023Y-109267200D01*
X134842023Y-109267200D02*
X134699166Y-109314819D01*
X134699166Y-109314819D02*
X134603928Y-109314819D01*
X134603928Y-109314819D02*
X134461071Y-109267200D01*
X134461071Y-109267200D02*
X134365833Y-109171961D01*
X134365833Y-109171961D02*
X134318214Y-109076723D01*
X134318214Y-109076723D02*
X134270595Y-108886247D01*
X134270595Y-108886247D02*
X134270595Y-108743390D01*
X134270595Y-108743390D02*
X134318214Y-108552914D01*
X134318214Y-108552914D02*
X134365833Y-108457676D01*
X134365833Y-108457676D02*
X134461071Y-108362438D01*
X134461071Y-108362438D02*
X134603928Y-108314819D01*
X134603928Y-108314819D02*
X134699166Y-108314819D01*
X134699166Y-108314819D02*
X134842023Y-108362438D01*
X134842023Y-108362438D02*
X134889642Y-108410057D01*
X135842023Y-109314819D02*
X135270595Y-109314819D01*
X135556309Y-109314819D02*
X135556309Y-108314819D01*
X135556309Y-108314819D02*
X135461071Y-108457676D01*
X135461071Y-108457676D02*
X135365833Y-108552914D01*
X135365833Y-108552914D02*
X135270595Y-108600533D01*
X136746785Y-108314819D02*
X136270595Y-108314819D01*
X136270595Y-108314819D02*
X136222976Y-108791009D01*
X136222976Y-108791009D02*
X136270595Y-108743390D01*
X136270595Y-108743390D02*
X136365833Y-108695771D01*
X136365833Y-108695771D02*
X136603928Y-108695771D01*
X136603928Y-108695771D02*
X136699166Y-108743390D01*
X136699166Y-108743390D02*
X136746785Y-108791009D01*
X136746785Y-108791009D02*
X136794404Y-108886247D01*
X136794404Y-108886247D02*
X136794404Y-109124342D01*
X136794404Y-109124342D02*
X136746785Y-109219580D01*
X136746785Y-109219580D02*
X136699166Y-109267200D01*
X136699166Y-109267200D02*
X136603928Y-109314819D01*
X136603928Y-109314819D02*
X136365833Y-109314819D01*
X136365833Y-109314819D02*
X136270595Y-109267200D01*
X136270595Y-109267200D02*
X136222976Y-109219580D01*
X140559580Y-92442857D02*
X140607200Y-92490476D01*
X140607200Y-92490476D02*
X140654819Y-92633333D01*
X140654819Y-92633333D02*
X140654819Y-92728571D01*
X140654819Y-92728571D02*
X140607200Y-92871428D01*
X140607200Y-92871428D02*
X140511961Y-92966666D01*
X140511961Y-92966666D02*
X140416723Y-93014285D01*
X140416723Y-93014285D02*
X140226247Y-93061904D01*
X140226247Y-93061904D02*
X140083390Y-93061904D01*
X140083390Y-93061904D02*
X139892914Y-93014285D01*
X139892914Y-93014285D02*
X139797676Y-92966666D01*
X139797676Y-92966666D02*
X139702438Y-92871428D01*
X139702438Y-92871428D02*
X139654819Y-92728571D01*
X139654819Y-92728571D02*
X139654819Y-92633333D01*
X139654819Y-92633333D02*
X139702438Y-92490476D01*
X139702438Y-92490476D02*
X139750057Y-92442857D01*
X140654819Y-91490476D02*
X140654819Y-92061904D01*
X140654819Y-91776190D02*
X139654819Y-91776190D01*
X139654819Y-91776190D02*
X139797676Y-91871428D01*
X139797676Y-91871428D02*
X139892914Y-91966666D01*
X139892914Y-91966666D02*
X139940533Y-92061904D01*
X140083390Y-90919047D02*
X140035771Y-91014285D01*
X140035771Y-91014285D02*
X139988152Y-91061904D01*
X139988152Y-91061904D02*
X139892914Y-91109523D01*
X139892914Y-91109523D02*
X139845295Y-91109523D01*
X139845295Y-91109523D02*
X139750057Y-91061904D01*
X139750057Y-91061904D02*
X139702438Y-91014285D01*
X139702438Y-91014285D02*
X139654819Y-90919047D01*
X139654819Y-90919047D02*
X139654819Y-90728571D01*
X139654819Y-90728571D02*
X139702438Y-90633333D01*
X139702438Y-90633333D02*
X139750057Y-90585714D01*
X139750057Y-90585714D02*
X139845295Y-90538095D01*
X139845295Y-90538095D02*
X139892914Y-90538095D01*
X139892914Y-90538095D02*
X139988152Y-90585714D01*
X139988152Y-90585714D02*
X140035771Y-90633333D01*
X140035771Y-90633333D02*
X140083390Y-90728571D01*
X140083390Y-90728571D02*
X140083390Y-90919047D01*
X140083390Y-90919047D02*
X140131009Y-91014285D01*
X140131009Y-91014285D02*
X140178628Y-91061904D01*
X140178628Y-91061904D02*
X140273866Y-91109523D01*
X140273866Y-91109523D02*
X140464342Y-91109523D01*
X140464342Y-91109523D02*
X140559580Y-91061904D01*
X140559580Y-91061904D02*
X140607200Y-91014285D01*
X140607200Y-91014285D02*
X140654819Y-90919047D01*
X140654819Y-90919047D02*
X140654819Y-90728571D01*
X140654819Y-90728571D02*
X140607200Y-90633333D01*
X140607200Y-90633333D02*
X140559580Y-90585714D01*
X140559580Y-90585714D02*
X140464342Y-90538095D01*
X140464342Y-90538095D02*
X140273866Y-90538095D01*
X140273866Y-90538095D02*
X140178628Y-90585714D01*
X140178628Y-90585714D02*
X140131009Y-90633333D01*
X140131009Y-90633333D02*
X140083390Y-90728571D01*
X135354819Y-103466666D02*
X134878628Y-103799999D01*
X135354819Y-104038094D02*
X134354819Y-104038094D01*
X134354819Y-104038094D02*
X134354819Y-103657142D01*
X134354819Y-103657142D02*
X134402438Y-103561904D01*
X134402438Y-103561904D02*
X134450057Y-103514285D01*
X134450057Y-103514285D02*
X134545295Y-103466666D01*
X134545295Y-103466666D02*
X134688152Y-103466666D01*
X134688152Y-103466666D02*
X134783390Y-103514285D01*
X134783390Y-103514285D02*
X134831009Y-103561904D01*
X134831009Y-103561904D02*
X134878628Y-103657142D01*
X134878628Y-103657142D02*
X134878628Y-104038094D01*
X134354819Y-102561904D02*
X134354819Y-103038094D01*
X134354819Y-103038094D02*
X134831009Y-103085713D01*
X134831009Y-103085713D02*
X134783390Y-103038094D01*
X134783390Y-103038094D02*
X134735771Y-102942856D01*
X134735771Y-102942856D02*
X134735771Y-102704761D01*
X134735771Y-102704761D02*
X134783390Y-102609523D01*
X134783390Y-102609523D02*
X134831009Y-102561904D01*
X134831009Y-102561904D02*
X134926247Y-102514285D01*
X134926247Y-102514285D02*
X135164342Y-102514285D01*
X135164342Y-102514285D02*
X135259580Y-102561904D01*
X135259580Y-102561904D02*
X135307200Y-102609523D01*
X135307200Y-102609523D02*
X135354819Y-102704761D01*
X135354819Y-102704761D02*
X135354819Y-102942856D01*
X135354819Y-102942856D02*
X135307200Y-103038094D01*
X135307200Y-103038094D02*
X135259580Y-103085713D01*
X148765833Y-113159580D02*
X148718214Y-113207200D01*
X148718214Y-113207200D02*
X148575357Y-113254819D01*
X148575357Y-113254819D02*
X148480119Y-113254819D01*
X148480119Y-113254819D02*
X148337262Y-113207200D01*
X148337262Y-113207200D02*
X148242024Y-113111961D01*
X148242024Y-113111961D02*
X148194405Y-113016723D01*
X148194405Y-113016723D02*
X148146786Y-112826247D01*
X148146786Y-112826247D02*
X148146786Y-112683390D01*
X148146786Y-112683390D02*
X148194405Y-112492914D01*
X148194405Y-112492914D02*
X148242024Y-112397676D01*
X148242024Y-112397676D02*
X148337262Y-112302438D01*
X148337262Y-112302438D02*
X148480119Y-112254819D01*
X148480119Y-112254819D02*
X148575357Y-112254819D01*
X148575357Y-112254819D02*
X148718214Y-112302438D01*
X148718214Y-112302438D02*
X148765833Y-112350057D01*
X149670595Y-112254819D02*
X149194405Y-112254819D01*
X149194405Y-112254819D02*
X149146786Y-112731009D01*
X149146786Y-112731009D02*
X149194405Y-112683390D01*
X149194405Y-112683390D02*
X149289643Y-112635771D01*
X149289643Y-112635771D02*
X149527738Y-112635771D01*
X149527738Y-112635771D02*
X149622976Y-112683390D01*
X149622976Y-112683390D02*
X149670595Y-112731009D01*
X149670595Y-112731009D02*
X149718214Y-112826247D01*
X149718214Y-112826247D02*
X149718214Y-113064342D01*
X149718214Y-113064342D02*
X149670595Y-113159580D01*
X149670595Y-113159580D02*
X149622976Y-113207200D01*
X149622976Y-113207200D02*
X149527738Y-113254819D01*
X149527738Y-113254819D02*
X149289643Y-113254819D01*
X149289643Y-113254819D02*
X149194405Y-113207200D01*
X149194405Y-113207200D02*
X149146786Y-113159580D01*
X125957142Y-90629580D02*
X125909523Y-90677200D01*
X125909523Y-90677200D02*
X125766666Y-90724819D01*
X125766666Y-90724819D02*
X125671428Y-90724819D01*
X125671428Y-90724819D02*
X125528571Y-90677200D01*
X125528571Y-90677200D02*
X125433333Y-90581961D01*
X125433333Y-90581961D02*
X125385714Y-90486723D01*
X125385714Y-90486723D02*
X125338095Y-90296247D01*
X125338095Y-90296247D02*
X125338095Y-90153390D01*
X125338095Y-90153390D02*
X125385714Y-89962914D01*
X125385714Y-89962914D02*
X125433333Y-89867676D01*
X125433333Y-89867676D02*
X125528571Y-89772438D01*
X125528571Y-89772438D02*
X125671428Y-89724819D01*
X125671428Y-89724819D02*
X125766666Y-89724819D01*
X125766666Y-89724819D02*
X125909523Y-89772438D01*
X125909523Y-89772438D02*
X125957142Y-89820057D01*
X126909523Y-90724819D02*
X126338095Y-90724819D01*
X126623809Y-90724819D02*
X126623809Y-89724819D01*
X126623809Y-89724819D02*
X126528571Y-89867676D01*
X126528571Y-89867676D02*
X126433333Y-89962914D01*
X126433333Y-89962914D02*
X126338095Y-90010533D01*
X127528571Y-89724819D02*
X127623809Y-89724819D01*
X127623809Y-89724819D02*
X127719047Y-89772438D01*
X127719047Y-89772438D02*
X127766666Y-89820057D01*
X127766666Y-89820057D02*
X127814285Y-89915295D01*
X127814285Y-89915295D02*
X127861904Y-90105771D01*
X127861904Y-90105771D02*
X127861904Y-90343866D01*
X127861904Y-90343866D02*
X127814285Y-90534342D01*
X127814285Y-90534342D02*
X127766666Y-90629580D01*
X127766666Y-90629580D02*
X127719047Y-90677200D01*
X127719047Y-90677200D02*
X127623809Y-90724819D01*
X127623809Y-90724819D02*
X127528571Y-90724819D01*
X127528571Y-90724819D02*
X127433333Y-90677200D01*
X127433333Y-90677200D02*
X127385714Y-90629580D01*
X127385714Y-90629580D02*
X127338095Y-90534342D01*
X127338095Y-90534342D02*
X127290476Y-90343866D01*
X127290476Y-90343866D02*
X127290476Y-90105771D01*
X127290476Y-90105771D02*
X127338095Y-89915295D01*
X127338095Y-89915295D02*
X127385714Y-89820057D01*
X127385714Y-89820057D02*
X127433333Y-89772438D01*
X127433333Y-89772438D02*
X127528571Y-89724819D01*
X134957142Y-99219580D02*
X134909523Y-99267200D01*
X134909523Y-99267200D02*
X134766666Y-99314819D01*
X134766666Y-99314819D02*
X134671428Y-99314819D01*
X134671428Y-99314819D02*
X134528571Y-99267200D01*
X134528571Y-99267200D02*
X134433333Y-99171961D01*
X134433333Y-99171961D02*
X134385714Y-99076723D01*
X134385714Y-99076723D02*
X134338095Y-98886247D01*
X134338095Y-98886247D02*
X134338095Y-98743390D01*
X134338095Y-98743390D02*
X134385714Y-98552914D01*
X134385714Y-98552914D02*
X134433333Y-98457676D01*
X134433333Y-98457676D02*
X134528571Y-98362438D01*
X134528571Y-98362438D02*
X134671428Y-98314819D01*
X134671428Y-98314819D02*
X134766666Y-98314819D01*
X134766666Y-98314819D02*
X134909523Y-98362438D01*
X134909523Y-98362438D02*
X134957142Y-98410057D01*
X135909523Y-99314819D02*
X135338095Y-99314819D01*
X135623809Y-99314819D02*
X135623809Y-98314819D01*
X135623809Y-98314819D02*
X135528571Y-98457676D01*
X135528571Y-98457676D02*
X135433333Y-98552914D01*
X135433333Y-98552914D02*
X135338095Y-98600533D01*
X136242857Y-98314819D02*
X136909523Y-98314819D01*
X136909523Y-98314819D02*
X136480952Y-99314819D01*
X137057142Y-90159580D02*
X137009523Y-90207200D01*
X137009523Y-90207200D02*
X136866666Y-90254819D01*
X136866666Y-90254819D02*
X136771428Y-90254819D01*
X136771428Y-90254819D02*
X136628571Y-90207200D01*
X136628571Y-90207200D02*
X136533333Y-90111961D01*
X136533333Y-90111961D02*
X136485714Y-90016723D01*
X136485714Y-90016723D02*
X136438095Y-89826247D01*
X136438095Y-89826247D02*
X136438095Y-89683390D01*
X136438095Y-89683390D02*
X136485714Y-89492914D01*
X136485714Y-89492914D02*
X136533333Y-89397676D01*
X136533333Y-89397676D02*
X136628571Y-89302438D01*
X136628571Y-89302438D02*
X136771428Y-89254819D01*
X136771428Y-89254819D02*
X136866666Y-89254819D01*
X136866666Y-89254819D02*
X137009523Y-89302438D01*
X137009523Y-89302438D02*
X137057142Y-89350057D01*
X138009523Y-90254819D02*
X137438095Y-90254819D01*
X137723809Y-90254819D02*
X137723809Y-89254819D01*
X137723809Y-89254819D02*
X137628571Y-89397676D01*
X137628571Y-89397676D02*
X137533333Y-89492914D01*
X137533333Y-89492914D02*
X137438095Y-89540533D01*
X138961904Y-90254819D02*
X138390476Y-90254819D01*
X138676190Y-90254819D02*
X138676190Y-89254819D01*
X138676190Y-89254819D02*
X138580952Y-89397676D01*
X138580952Y-89397676D02*
X138485714Y-89492914D01*
X138485714Y-89492914D02*
X138390476Y-89540533D01*
D13*
%TO.C,J3*%
X152400000Y-113150000D02*
X152400000Y-111750000D01*
X153100000Y-111050000D02*
X153700000Y-111050000D01*
X153700000Y-113850000D02*
X153100000Y-113850000D01*
X154400000Y-111750000D02*
X154400000Y-113150000D01*
X152400000Y-111750000D02*
G75*
G02*
X153100000Y-111050000I700000J0D01*
G01*
X153100000Y-113850000D02*
G75*
G02*
X152400000Y-113150000I-1J699999D01*
G01*
X153700000Y-111050000D02*
G75*
G02*
X154400000Y-111750000I0J-700000D01*
G01*
X154400000Y-113150000D02*
G75*
G02*
X153700000Y-113850000I-699999J-1D01*
G01*
%TO.C,J4*%
X127610000Y-93440000D02*
X123250000Y-93440000D01*
X127610000Y-93440000D02*
X127610000Y-95940000D01*
X127610000Y-95940000D02*
X127810000Y-95940000D01*
X127610000Y-99460000D02*
X127610000Y-101960000D01*
X127610000Y-101960000D02*
X123250000Y-101960000D01*
X127810000Y-96600000D02*
X127810000Y-95940000D01*
%TO.C,C16*%
X145484165Y-86540000D02*
X145715835Y-86540000D01*
X145484165Y-87260000D02*
X145715835Y-87260000D01*
%TO.C,C2*%
X151440000Y-108383335D02*
X151440000Y-108151665D01*
X152160000Y-108383335D02*
X152160000Y-108151665D01*
%TO.C,U1*%
X130937500Y-89890000D02*
X130137500Y-89890000D01*
X130937500Y-89890000D02*
X131737500Y-89890000D01*
X130937500Y-93010000D02*
X130137500Y-93010000D01*
X130937500Y-93010000D02*
X131737500Y-93010000D01*
X129637500Y-89940000D02*
X129397500Y-89610000D01*
X129877500Y-89610000D01*
X129637500Y-89940000D01*
G36*
X129637500Y-89940000D02*
G01*
X129397500Y-89610000D01*
X129877500Y-89610000D01*
X129637500Y-89940000D01*
G37*
%TO.C,U3*%
X144535000Y-91975000D02*
X144535000Y-90025000D01*
X144535000Y-91975000D02*
X144535000Y-93925000D01*
X149655000Y-91975000D02*
X149655000Y-90025000D01*
X149655000Y-91975000D02*
X149655000Y-93925000D01*
X144630000Y-94675000D02*
X144300000Y-94915000D01*
X144300000Y-94435000D01*
X144630000Y-94675000D01*
G36*
X144630000Y-94675000D02*
G01*
X144300000Y-94915000D01*
X144300000Y-94435000D01*
X144630000Y-94675000D01*
G37*
%TO.C,J2*%
X156300000Y-113050000D02*
X156300000Y-111650000D01*
X157000000Y-110950000D02*
X157600000Y-110950000D01*
X157600000Y-113750000D02*
X157000000Y-113750000D01*
X158300000Y-111650000D02*
X158300000Y-113050000D01*
X156300000Y-111650000D02*
G75*
G02*
X157000000Y-110950000I700000J0D01*
G01*
X157000000Y-113750000D02*
G75*
G02*
X156300000Y-113050000I-1J699999D01*
G01*
X157600000Y-110950000D02*
G75*
G02*
X158300000Y-111650000I0J-700000D01*
G01*
X158300000Y-113050000D02*
G75*
G02*
X157600000Y-113750000I-699999J-1D01*
G01*
%TO.C,R4*%
X152920000Y-109367621D02*
X152920000Y-109032379D01*
X153680000Y-109367621D02*
X153680000Y-109032379D01*
%TO.C,R11*%
X148567621Y-96320000D02*
X148232379Y-96320000D01*
X148567621Y-97080000D02*
X148232379Y-97080000D01*
%TO.C,J1*%
X154820000Y-92140000D02*
X154820000Y-93140000D01*
X154820000Y-93140000D02*
X155820000Y-92640000D01*
X155820000Y-92640000D02*
X154820000Y-92140000D01*
X156210000Y-87430000D02*
X165330000Y-87430000D01*
X156210000Y-95670000D02*
X157520000Y-95670000D01*
X156210000Y-108010000D02*
X156210000Y-87430000D01*
X157520000Y-88730000D02*
X164020000Y-88730000D01*
X157520000Y-95670000D02*
X157520000Y-88730000D01*
X157520000Y-99770000D02*
X156210000Y-99770000D01*
X157520000Y-99770000D02*
X157520000Y-99770000D01*
X157520000Y-106710000D02*
X157520000Y-99770000D01*
X164020000Y-88730000D02*
X164020000Y-106710000D01*
X164020000Y-106710000D02*
X157520000Y-106710000D01*
X165330000Y-87430000D02*
X165330000Y-108010000D01*
X165330000Y-108010000D02*
X156210000Y-108010000D01*
%TO.C,R10*%
X152634879Y-85820000D02*
X152970121Y-85820000D01*
X152634879Y-86580000D02*
X152970121Y-86580000D01*
%TO.C,C4*%
X142615835Y-112540000D02*
X142384165Y-112540000D01*
X142615835Y-113260000D02*
X142384165Y-113260000D01*
%TO.C,R3*%
X154520000Y-109370121D02*
X154520000Y-109034879D01*
X155280000Y-109370121D02*
X155280000Y-109034879D01*
%TO.C,C6*%
X152615835Y-104540000D02*
X152384165Y-104540000D01*
X152615835Y-105260000D02*
X152384165Y-105260000D01*
%TO.C,R2*%
X129734879Y-93620000D02*
X130070121Y-93620000D01*
X129734879Y-94380000D02*
X130070121Y-94380000D01*
%TO.C,J6*%
X167700000Y-92760000D02*
X168830000Y-92760000D01*
X167700000Y-93520000D02*
X167700000Y-92760000D01*
X167700000Y-94280000D02*
X167700000Y-103105000D01*
X167700000Y-94280000D02*
X168266529Y-94280000D01*
X167700000Y-103105000D02*
X168522470Y-103105000D01*
X169137530Y-103105000D02*
X169792470Y-103105000D01*
X169393471Y-94280000D02*
X169536529Y-94280000D01*
X169590000Y-92825000D02*
X169792470Y-92825000D01*
X169590000Y-92956529D02*
X169590000Y-92825000D01*
X169590000Y-94226529D02*
X169590000Y-94083471D01*
X170407530Y-92825000D02*
X171230000Y-92825000D01*
X170407530Y-103105000D02*
X171230000Y-103105000D01*
X171230000Y-92825000D02*
X171230000Y-103105000D01*
%TO.C,R6*%
X135429879Y-109520000D02*
X135765121Y-109520000D01*
X135429879Y-110280000D02*
X135765121Y-110280000D01*
%TO.C,J5*%
X151850000Y-101500000D02*
X151850000Y-100900000D01*
X152550000Y-100200000D02*
X153950000Y-100200000D01*
X153950000Y-102200000D02*
X152550000Y-102200000D01*
X154650000Y-100900000D02*
X154650000Y-101500000D01*
X151850000Y-100900000D02*
G75*
G02*
X152550000Y-100200000I699999J1D01*
G01*
X152550000Y-102200000D02*
G75*
G02*
X151850000Y-101500000I-1J699999D01*
G01*
X153950000Y-100200000D02*
G75*
G02*
X154650000Y-100900000I0J-700000D01*
G01*
X154650000Y-101500000D02*
G75*
G02*
X153950000Y-102200000I-700000J0D01*
G01*
%TO.C,R1*%
X138134879Y-87620000D02*
X138470121Y-87620000D01*
X138134879Y-88380000D02*
X138470121Y-88380000D01*
%TO.C,U2*%
X138940000Y-100515000D02*
X138940000Y-101465000D01*
X138940000Y-110735000D02*
X138940000Y-109785000D01*
X139890000Y-100515000D02*
X138940000Y-100515000D01*
X139890000Y-110735000D02*
X138940000Y-110735000D01*
X148210000Y-100515000D02*
X149160000Y-100515000D01*
X148210000Y-110735000D02*
X149160000Y-110735000D01*
X149160000Y-100515000D02*
X149160000Y-101465000D01*
X149160000Y-110735000D02*
X149160000Y-109785000D01*
X138325000Y-101465000D02*
X137985000Y-100995000D01*
X138665000Y-100995000D01*
X138325000Y-101465000D01*
G36*
X138325000Y-101465000D02*
G01*
X137985000Y-100995000D01*
X138665000Y-100995000D01*
X138325000Y-101465000D01*
G37*
%TO.C,C7*%
X145948335Y-97340000D02*
X145716665Y-97340000D01*
X145948335Y-98060000D02*
X145716665Y-98060000D01*
%TO.C,Y1*%
X134550000Y-97050000D02*
X139250000Y-97050000D01*
X139250000Y-97050000D02*
X139250000Y-91450000D01*
%TO.C,C15*%
X135648335Y-107340000D02*
X135416665Y-107340000D01*
X135648335Y-108060000D02*
X135416665Y-108060000D01*
%TO.C,C18*%
X139640000Y-94251665D02*
X139640000Y-94483335D01*
X140360000Y-94251665D02*
X140360000Y-94483335D01*
%TO.C,R5*%
X135620000Y-103134879D02*
X135620000Y-103470121D01*
X136380000Y-103134879D02*
X136380000Y-103470121D01*
%TO.C,C5*%
X146484165Y-112540000D02*
X146715835Y-112540000D01*
X146484165Y-113260000D02*
X146715835Y-113260000D01*
%TO.C,C10*%
X126453733Y-91190000D02*
X126746267Y-91190000D01*
X126453733Y-92210000D02*
X126746267Y-92210000D01*
%TO.C,C17*%
X135715835Y-97340000D02*
X135484165Y-97340000D01*
X135715835Y-98060000D02*
X135484165Y-98060000D01*
%TO.C,C11*%
X135015835Y-89440000D02*
X134784165Y-89440000D01*
X135015835Y-90160000D02*
X134784165Y-90160000D01*
%TD*%
%LPC*%
D14*
%TO.C,J3*%
X153400000Y-113100000D03*
D15*
X153400000Y-111800000D03*
%TD*%
D16*
%TO.C,J4*%
X126875000Y-96400000D03*
X126875000Y-97050000D03*
X126875000Y-97700000D03*
X126875000Y-98350000D03*
X126875000Y-99000000D03*
D17*
X124200000Y-94400000D03*
D18*
X126650000Y-94500000D03*
D19*
X124200000Y-96500000D03*
X124200000Y-98900000D03*
D18*
X126650000Y-100900000D03*
D17*
X124200000Y-101000000D03*
%TD*%
D20*
%TO.C,C16*%
X145032500Y-86900000D03*
X146167500Y-86900000D03*
%TD*%
D21*
%TO.C,C2*%
X151800000Y-108835000D03*
X151800000Y-107700000D03*
%TD*%
D22*
%TO.C,U1*%
X129800000Y-90500000D03*
X129800000Y-91450000D03*
X129800000Y-92400000D03*
X132075000Y-92400000D03*
X132075000Y-90500000D03*
%TD*%
D23*
%TO.C,U3*%
X145190000Y-94450000D03*
X146460000Y-94450000D03*
X147730000Y-94450000D03*
X149000000Y-94450000D03*
X149000000Y-89500000D03*
X147730000Y-89500000D03*
X146460000Y-89500000D03*
X145190000Y-89500000D03*
%TD*%
D14*
%TO.C,J2*%
X157300000Y-113000000D03*
D15*
X157300000Y-111700000D03*
%TD*%
D24*
%TO.C,R4*%
X153300000Y-109797500D03*
X153300000Y-108602500D03*
%TD*%
D25*
%TO.C,R11*%
X148997500Y-96700000D03*
X147802500Y-96700000D03*
%TD*%
D26*
%TO.C,J1*%
X159500000Y-92640000D03*
D27*
X162040000Y-92640000D03*
X159500000Y-95180000D03*
X162040000Y-95180000D03*
X159500000Y-97720000D03*
X162040000Y-97720000D03*
X159500000Y-100260000D03*
X162040000Y-100260000D03*
X159500000Y-102800000D03*
X162040000Y-102800000D03*
%TD*%
D28*
%TO.C,R10*%
X152205000Y-86200000D03*
X153400000Y-86200000D03*
%TD*%
D29*
%TO.C,C4*%
X143067500Y-112900000D03*
X141932500Y-112900000D03*
%TD*%
D24*
%TO.C,R3*%
X154900000Y-109800000D03*
X154900000Y-108605000D03*
%TD*%
D29*
%TO.C,C6*%
X153067500Y-104900000D03*
X151932500Y-104900000D03*
%TD*%
D28*
%TO.C,R2*%
X129305000Y-94000000D03*
X130500000Y-94000000D03*
%TD*%
D30*
%TO.C,J6*%
X168830000Y-93520000D03*
D31*
X170100000Y-93520000D03*
X168830000Y-94790000D03*
X170100000Y-94790000D03*
X168830000Y-96060000D03*
X170100000Y-96060000D03*
X168830000Y-97330000D03*
X170100000Y-97330000D03*
X168830000Y-98600000D03*
X170100000Y-98600000D03*
X168830000Y-99870000D03*
X170100000Y-99870000D03*
X168830000Y-101140000D03*
X170100000Y-101140000D03*
X168830000Y-102410000D03*
X170100000Y-102410000D03*
%TD*%
D28*
%TO.C,R6*%
X135000000Y-109900000D03*
X136195000Y-109900000D03*
%TD*%
D32*
%TO.C,J5*%
X152600000Y-101200000D03*
D33*
X153900000Y-101200000D03*
%TD*%
D28*
%TO.C,R1*%
X137705000Y-88000000D03*
X138900000Y-88000000D03*
%TD*%
D34*
%TO.C,U2*%
X138375000Y-101875000D03*
X138375000Y-102375000D03*
X138375000Y-102875000D03*
X138375000Y-103375000D03*
X138375000Y-103875000D03*
X138375000Y-104375000D03*
X138375000Y-104875000D03*
X138375000Y-105375000D03*
X138375000Y-105875000D03*
X138375000Y-106375000D03*
X138375000Y-106875000D03*
X138375000Y-107375000D03*
X138375000Y-107875000D03*
X138375000Y-108375000D03*
X138375000Y-108875000D03*
X138375000Y-109375000D03*
D35*
X140300000Y-111300000D03*
X140800000Y-111300000D03*
X141300000Y-111300000D03*
X141800000Y-111300000D03*
X142300000Y-111300000D03*
X142800000Y-111300000D03*
X143300000Y-111300000D03*
X143800000Y-111300000D03*
X144300000Y-111300000D03*
X144800000Y-111300000D03*
X145300000Y-111300000D03*
X145800000Y-111300000D03*
X146300000Y-111300000D03*
X146800000Y-111300000D03*
X147300000Y-111300000D03*
X147800000Y-111300000D03*
D34*
X149725000Y-109375000D03*
X149725000Y-108875000D03*
X149725000Y-108375000D03*
X149725000Y-107875000D03*
X149725000Y-107375000D03*
X149725000Y-106875000D03*
X149725000Y-106375000D03*
X149725000Y-105875000D03*
X149725000Y-105375000D03*
X149725000Y-104875000D03*
X149725000Y-104375000D03*
X149725000Y-103875000D03*
X149725000Y-103375000D03*
X149725000Y-102875000D03*
X149725000Y-102375000D03*
X149725000Y-101875000D03*
D35*
X147800000Y-99950000D03*
X147300000Y-99950000D03*
X146800000Y-99950000D03*
X146300000Y-99950000D03*
X145800000Y-99950000D03*
X145300000Y-99950000D03*
X144800000Y-99950000D03*
X144300000Y-99950000D03*
X143800000Y-99950000D03*
X143300000Y-99950000D03*
X142800000Y-99950000D03*
X142300000Y-99950000D03*
X141800000Y-99950000D03*
X141300000Y-99950000D03*
X140800000Y-99950000D03*
X140300000Y-99950000D03*
%TD*%
D29*
%TO.C,C7*%
X146400000Y-97700000D03*
X145265000Y-97700000D03*
%TD*%
D36*
%TO.C,Y1*%
X138150000Y-95800000D03*
X138150000Y-92700000D03*
X135650000Y-92700000D03*
X135650000Y-95800000D03*
%TD*%
D29*
%TO.C,C15*%
X136100000Y-107700000D03*
X134965000Y-107700000D03*
%TD*%
D37*
%TO.C,C18*%
X140000000Y-93800000D03*
X140000000Y-94935000D03*
%TD*%
D38*
%TO.C,FID2*%
X165200000Y-112300000D03*
%TD*%
D39*
%TO.C,R5*%
X136000000Y-102705000D03*
X136000000Y-103900000D03*
%TD*%
D20*
%TO.C,C5*%
X146032500Y-112900000D03*
X147167500Y-112900000D03*
%TD*%
D40*
%TO.C,C10*%
X125737500Y-91700000D03*
X127462500Y-91700000D03*
%TD*%
D29*
%TO.C,C17*%
X136167500Y-97700000D03*
X135032500Y-97700000D03*
%TD*%
%TO.C,C11*%
X135467500Y-89800000D03*
X134332500Y-89800000D03*
%TD*%
D38*
%TO.C,FID1*%
X129500000Y-86100000D03*
%TD*%
%LPD*%
M02*
