%TF.GenerationSoftware,KiCad,Pcbnew,8.0.5*%
%TF.CreationDate,2024-10-07T14:28:25-07:00*%
%TF.ProjectId,USB_SPII2CK,5553425f-5350-4494-9932-434b2e6b6963,rev?*%
%TF.SameCoordinates,Original*%
%TF.FileFunction,Soldermask,Top*%
%TF.FilePolarity,Negative*%
%FSLAX46Y46*%
G04 Gerber Fmt 4.6, Leading zero omitted, Abs format (unit mm)*
G04 Created by KiCad (PCBNEW 8.0.5) date 2024-10-07 14:28:25*
%MOMM*%
%LPD*%
G01*
G04 APERTURE LIST*
G04 Aperture macros list*
%AMRoundRect*
0 Rectangle with rounded corners*
0 $1 Rounding radius*
0 $2 $3 $4 $5 $6 $7 $8 $9 X,Y pos of 4 corners*
0 Add a 4 corners polygon primitive as box body*
4,1,4,$2,$3,$4,$5,$6,$7,$8,$9,$2,$3,0*
0 Add four circle primitives for the rounded corners*
1,1,$1+$1,$2,$3*
1,1,$1+$1,$4,$5*
1,1,$1+$1,$6,$7*
1,1,$1+$1,$8,$9*
0 Add four rect primitives between the rounded corners*
20,1,$1+$1,$2,$3,$4,$5,0*
20,1,$1+$1,$4,$5,$6,$7,0*
20,1,$1+$1,$6,$7,$8,$9,0*
20,1,$1+$1,$8,$9,$2,$3,0*%
%AMFreePoly0*
4,1,19,0.500000,-0.750000,0.000000,-0.750000,0.000000,-0.744911,-0.071157,-0.744911,-0.207708,-0.704816,-0.327430,-0.627875,-0.420627,-0.520320,-0.479746,-0.390866,-0.500000,-0.250000,-0.500000,0.250000,-0.479746,0.390866,-0.420627,0.520320,-0.327430,0.627875,-0.207708,0.704816,-0.071157,0.744911,0.000000,0.744911,0.000000,0.750000,0.500000,0.750000,0.500000,-0.750000,0.500000,-0.750000,
$1*%
%AMFreePoly1*
4,1,19,0.000000,0.744911,0.071157,0.744911,0.207708,0.704816,0.327430,0.627875,0.420627,0.520320,0.479746,0.390866,0.500000,0.250000,0.500000,-0.250000,0.479746,-0.390866,0.420627,-0.520320,0.327430,-0.627875,0.207708,-0.704816,0.071157,-0.744911,0.000000,-0.744911,0.000000,-0.750000,-0.500000,-0.750000,-0.500000,0.750000,0.000000,0.750000,0.000000,0.744911,0.000000,0.744911,
$1*%
G04 Aperture macros list end*
%ADD10FreePoly0,90.000000*%
%ADD11FreePoly1,90.000000*%
%ADD12RoundRect,0.100000X-0.575000X0.100000X-0.575000X-0.100000X0.575000X-0.100000X0.575000X0.100000X0*%
%ADD13O,1.600000X0.900000*%
%ADD14RoundRect,0.250000X-0.450000X0.550000X-0.450000X-0.550000X0.450000X-0.550000X0.450000X0.550000X0*%
%ADD15RoundRect,0.250000X-0.700000X0.700000X-0.700000X-0.700000X0.700000X-0.700000X0.700000X0.700000X0*%
%ADD16RoundRect,0.155000X-0.212500X-0.155000X0.212500X-0.155000X0.212500X0.155000X-0.212500X0.155000X0*%
%ADD17RoundRect,0.155000X0.155000X-0.212500X0.155000X0.212500X-0.155000X0.212500X-0.155000X-0.212500X0*%
%ADD18RoundRect,0.150000X-0.512500X-0.150000X0.512500X-0.150000X0.512500X0.150000X-0.512500X0.150000X0*%
%ADD19RoundRect,0.150000X0.150000X-0.825000X0.150000X0.825000X-0.150000X0.825000X-0.150000X-0.825000X0*%
%ADD20RoundRect,0.160000X0.160000X-0.197500X0.160000X0.197500X-0.160000X0.197500X-0.160000X-0.197500X0*%
%ADD21RoundRect,0.160000X0.197500X0.160000X-0.197500X0.160000X-0.197500X-0.160000X0.197500X-0.160000X0*%
%ADD22RoundRect,0.250000X-0.600000X-0.600000X0.600000X-0.600000X0.600000X0.600000X-0.600000X0.600000X0*%
%ADD23C,1.700000*%
%ADD24RoundRect,0.160000X-0.197500X-0.160000X0.197500X-0.160000X0.197500X0.160000X-0.197500X0.160000X0*%
%ADD25RoundRect,0.155000X0.212500X0.155000X-0.212500X0.155000X-0.212500X-0.155000X0.212500X-0.155000X0*%
%ADD26R,1.000000X1.000000*%
%ADD27O,1.000000X1.000000*%
%ADD28FreePoly0,0.000000*%
%ADD29FreePoly1,0.000000*%
%ADD30RoundRect,0.075000X-0.700000X-0.075000X0.700000X-0.075000X0.700000X0.075000X-0.700000X0.075000X0*%
%ADD31RoundRect,0.075000X-0.075000X-0.700000X0.075000X-0.700000X0.075000X0.700000X-0.075000X0.700000X0*%
%ADD32R,1.800000X2.100000*%
%ADD33RoundRect,0.155000X-0.155000X0.212500X-0.155000X-0.212500X0.155000X-0.212500X0.155000X0.212500X0*%
%ADD34C,3.000000*%
%ADD35RoundRect,0.160000X-0.160000X0.197500X-0.160000X-0.197500X0.160000X-0.197500X0.160000X0.197500X0*%
%ADD36RoundRect,0.237500X-0.300000X-0.237500X0.300000X-0.237500X0.300000X0.237500X-0.300000X0.237500X0*%
G04 APERTURE END LIST*
D10*
%TO.C,J3*%
X153400000Y-113100000D03*
D11*
X153400000Y-111800000D03*
%TD*%
D12*
%TO.C,J4*%
X126875000Y-96400000D03*
X126875000Y-97050000D03*
X126875000Y-97700000D03*
X126875000Y-98350000D03*
X126875000Y-99000000D03*
D13*
X124200000Y-94400000D03*
D14*
X126650000Y-94500000D03*
D15*
X124200000Y-96500000D03*
X124200000Y-98900000D03*
D14*
X126650000Y-100900000D03*
D13*
X124200000Y-101000000D03*
%TD*%
D16*
%TO.C,C16*%
X145032500Y-86900000D03*
X146167500Y-86900000D03*
%TD*%
D17*
%TO.C,C2*%
X151800000Y-108835000D03*
X151800000Y-107700000D03*
%TD*%
D18*
%TO.C,U1*%
X129800000Y-90500000D03*
X129800000Y-91450000D03*
X129800000Y-92400000D03*
X132075000Y-92400000D03*
X132075000Y-90500000D03*
%TD*%
D19*
%TO.C,U3*%
X145190000Y-94450000D03*
X146460000Y-94450000D03*
X147730000Y-94450000D03*
X149000000Y-94450000D03*
X149000000Y-89500000D03*
X147730000Y-89500000D03*
X146460000Y-89500000D03*
X145190000Y-89500000D03*
%TD*%
D10*
%TO.C,J2*%
X157300000Y-113000000D03*
D11*
X157300000Y-111700000D03*
%TD*%
D20*
%TO.C,R4*%
X153300000Y-109797500D03*
X153300000Y-108602500D03*
%TD*%
D21*
%TO.C,R11*%
X148997500Y-96700000D03*
X147802500Y-96700000D03*
%TD*%
D22*
%TO.C,J1*%
X159500000Y-92640000D03*
D23*
X162040000Y-92640000D03*
X159500000Y-95180000D03*
X162040000Y-95180000D03*
X159500000Y-97720000D03*
X162040000Y-97720000D03*
X159500000Y-100260000D03*
X162040000Y-100260000D03*
X159500000Y-102800000D03*
X162040000Y-102800000D03*
%TD*%
D24*
%TO.C,R10*%
X152205000Y-86200000D03*
X153400000Y-86200000D03*
%TD*%
D25*
%TO.C,C4*%
X143067500Y-112900000D03*
X141932500Y-112900000D03*
%TD*%
D20*
%TO.C,R3*%
X154900000Y-109800000D03*
X154900000Y-108605000D03*
%TD*%
D25*
%TO.C,C6*%
X153067500Y-104900000D03*
X151932500Y-104900000D03*
%TD*%
D24*
%TO.C,R2*%
X129305000Y-94000000D03*
X130500000Y-94000000D03*
%TD*%
D26*
%TO.C,J6*%
X168830000Y-93520000D03*
D27*
X170100000Y-93520000D03*
X168830000Y-94790000D03*
X170100000Y-94790000D03*
X168830000Y-96060000D03*
X170100000Y-96060000D03*
X168830000Y-97330000D03*
X170100000Y-97330000D03*
X168830000Y-98600000D03*
X170100000Y-98600000D03*
X168830000Y-99870000D03*
X170100000Y-99870000D03*
X168830000Y-101140000D03*
X170100000Y-101140000D03*
X168830000Y-102410000D03*
X170100000Y-102410000D03*
%TD*%
D24*
%TO.C,R6*%
X135000000Y-109900000D03*
X136195000Y-109900000D03*
%TD*%
D28*
%TO.C,J5*%
X152600000Y-101200000D03*
D29*
X153900000Y-101200000D03*
%TD*%
D24*
%TO.C,R1*%
X137705000Y-88000000D03*
X138900000Y-88000000D03*
%TD*%
D30*
%TO.C,U2*%
X138375000Y-101875000D03*
X138375000Y-102375000D03*
X138375000Y-102875000D03*
X138375000Y-103375000D03*
X138375000Y-103875000D03*
X138375000Y-104375000D03*
X138375000Y-104875000D03*
X138375000Y-105375000D03*
X138375000Y-105875000D03*
X138375000Y-106375000D03*
X138375000Y-106875000D03*
X138375000Y-107375000D03*
X138375000Y-107875000D03*
X138375000Y-108375000D03*
X138375000Y-108875000D03*
X138375000Y-109375000D03*
D31*
X140300000Y-111300000D03*
X140800000Y-111300000D03*
X141300000Y-111300000D03*
X141800000Y-111300000D03*
X142300000Y-111300000D03*
X142800000Y-111300000D03*
X143300000Y-111300000D03*
X143800000Y-111300000D03*
X144300000Y-111300000D03*
X144800000Y-111300000D03*
X145300000Y-111300000D03*
X145800000Y-111300000D03*
X146300000Y-111300000D03*
X146800000Y-111300000D03*
X147300000Y-111300000D03*
X147800000Y-111300000D03*
D30*
X149725000Y-109375000D03*
X149725000Y-108875000D03*
X149725000Y-108375000D03*
X149725000Y-107875000D03*
X149725000Y-107375000D03*
X149725000Y-106875000D03*
X149725000Y-106375000D03*
X149725000Y-105875000D03*
X149725000Y-105375000D03*
X149725000Y-104875000D03*
X149725000Y-104375000D03*
X149725000Y-103875000D03*
X149725000Y-103375000D03*
X149725000Y-102875000D03*
X149725000Y-102375000D03*
X149725000Y-101875000D03*
D31*
X147800000Y-99950000D03*
X147300000Y-99950000D03*
X146800000Y-99950000D03*
X146300000Y-99950000D03*
X145800000Y-99950000D03*
X145300000Y-99950000D03*
X144800000Y-99950000D03*
X144300000Y-99950000D03*
X143800000Y-99950000D03*
X143300000Y-99950000D03*
X142800000Y-99950000D03*
X142300000Y-99950000D03*
X141800000Y-99950000D03*
X141300000Y-99950000D03*
X140800000Y-99950000D03*
X140300000Y-99950000D03*
%TD*%
D25*
%TO.C,C7*%
X146400000Y-97700000D03*
X145265000Y-97700000D03*
%TD*%
D32*
%TO.C,Y1*%
X138150000Y-95800000D03*
X138150000Y-92700000D03*
X135650000Y-92700000D03*
X135650000Y-95800000D03*
%TD*%
D25*
%TO.C,C15*%
X136100000Y-107700000D03*
X134965000Y-107700000D03*
%TD*%
D33*
%TO.C,C18*%
X140000000Y-93800000D03*
X140000000Y-94935000D03*
%TD*%
D34*
%TO.C,FID2*%
X165200000Y-112300000D03*
%TD*%
D35*
%TO.C,R5*%
X136000000Y-102705000D03*
X136000000Y-103900000D03*
%TD*%
D16*
%TO.C,C5*%
X146032500Y-112900000D03*
X147167500Y-112900000D03*
%TD*%
D36*
%TO.C,C10*%
X125737500Y-91700000D03*
X127462500Y-91700000D03*
%TD*%
D25*
%TO.C,C17*%
X136167500Y-97700000D03*
X135032500Y-97700000D03*
%TD*%
%TO.C,C11*%
X135467500Y-89800000D03*
X134332500Y-89800000D03*
%TD*%
D34*
%TO.C,FID1*%
X129500000Y-86100000D03*
%TD*%
M02*
